<svg width="23" height="22" viewBox="0 0 23 22" fill="none" xmlns="http://www.w3.org/2000/svg">
<path d="M21.4438 15.9201V18.9201C21.4449 19.1986 21.3879 19.4743 21.2763 19.7294C21.1647 19.9846 21.0011 20.2137 20.7959 20.402C20.5906 20.5902 20.3484 20.7336 20.0845 20.8228C19.8207 20.912 19.5412 20.9452 19.2638 20.9201C16.1866 20.5857 13.2308 19.5342 10.6338 17.8501C8.21761 16.3148 6.16912 14.2663 4.63378 11.8501C2.94376 9.2413 1.89202 6.27109 1.56378 3.1801C1.53879 2.90356 1.57166 2.62486 1.66028 2.36172C1.74891 2.09859 1.89135 1.85679 2.07855 1.65172C2.26574 1.44665 2.49359 1.28281 2.74757 1.17062C3.00156 1.05843 3.27612 1.00036 3.55378 1.0001H6.55378C7.03909 0.995321 7.50957 1.16718 7.87754 1.48363C8.24551 1.80008 8.48586 2.23954 8.55378 2.7201C8.6804 3.68016 8.91523 4.62282 9.25378 5.5301C9.38832 5.88802 9.41744 6.27701 9.33769 6.65098C9.25793 7.02494 9.07264 7.36821 8.80378 7.6401L7.53378 8.9101C8.95734 11.4136 11.0302 13.4865 13.5338 14.9101L14.8038 13.6401C15.0757 13.3712 15.4189 13.1859 15.7929 13.1062C16.1669 13.0264 16.5559 13.0556 16.9138 13.1901C17.8211 13.5286 18.7637 13.7635 19.7238 13.8901C20.2095 13.9586 20.6532 14.2033 20.9703 14.5776C21.2874 14.9519 21.4559 15.4297 21.4438 15.9201Z" stroke="#579653" stroke-width="2" stroke-linecap="round" stroke-linejoin="round"/>
</svg>
