<svg width="33" height="32" viewBox="0 0 33 32" fill="none" xmlns="http://www.w3.org/2000/svg">
<g clip-path="url(#clip0_2275_21752)">
<path d="M15.4443 0C16.1112 0 16.7775 0 17.4443 0C17.5243 0.0175 17.6037 0.045 17.685 0.05125C20.1762 0.2375 22.5087 0.9525 24.6337 2.26062C28.7637 4.80375 31.3081 8.46062 32.1993 13.2425C32.3075 13.8231 32.3643 14.4138 32.445 14.9994C32.445 15.6663 32.445 16.3325 32.445 16.9994C32.4193 17.2044 32.3906 17.4094 32.3687 17.615C32.0262 20.7794 30.8793 23.6187 28.8593 26.08C26.3475 29.1406 23.1343 31.0419 19.2312 31.7519C18.64 31.8594 18.0406 31.9181 17.445 31.9994C16.7781 31.9994 16.1118 31.9994 15.445 31.9994C15.0543 31.9513 14.6631 31.9094 14.2737 31.8544C11.3218 31.4344 8.67059 30.31 6.36621 28.415C3.30684 25.9006 1.40184 22.6919 0.693086 18.7881C0.585586 18.1962 0.526211 17.5963 0.444336 17C0.444336 16.3331 0.444336 15.6669 0.444336 15C0.469336 14.795 0.497461 14.59 0.519961 14.385C0.889961 10.9956 2.17184 7.99875 4.43246 5.44375C6.91871 2.63437 10.015 0.886875 13.7187 0.24125C14.2906 0.141875 14.8693 0.079375 15.4443 0ZM16.4993 23.0688C18.7606 22.9613 21.0181 22.8769 23.2725 22.7406C25.1 22.63 25.9375 21.8381 26.1831 20.0562C26.4256 18.2987 26.5081 16.5281 26.4112 14.7581C26.3487 13.6181 26.2468 12.4725 26.05 11.3488C25.8575 10.2475 25.1143 9.5875 24.0112 9.37875C23.5218 9.28625 23.0225 9.21312 22.525 9.19687C20.2356 9.11937 17.9456 9.00125 15.6568 9.02063C13.4837 9.03875 11.3093 9.17688 9.13996 9.32625C7.88184 9.41313 7.01621 10.1925 6.81996 11.4444C6.62121 12.7156 6.51184 14.0069 6.46496 15.2937C6.39996 17.0837 6.45621 18.8781 6.82434 20.6413C7.04809 21.7125 7.73621 22.3687 8.80246 22.6106C9.11621 22.6819 9.43871 22.7306 9.75934 22.7469C12.0062 22.8606 14.2518 22.9625 16.4993 23.0688Z" fill="#579653"/>
<path d="M19.6588 16C17.8957 17.015 16.1963 17.9932 14.4619 18.9919C14.4619 16.9813 14.4619 15.0269 14.4619 13.0088C16.1944 14.0057 17.8988 14.9869 19.6588 16Z" fill="#579653"/>
</g>
<defs>
<clipPath id="clip0_2275_21752">
<rect width="32" height="32" fill="white" transform="translate(0.444336)"/>
</clipPath>
</defs>
</svg>
