<svg width="33" height="32" viewBox="0 0 33 32" fill="none" xmlns="http://www.w3.org/2000/svg">
<path d="M14.0914 31.9717C6.6327 30.9098 0.36919 24.5334 0.445017 15.8826C0.52343 6.91308 7.85973 -0.0963157 16.5669 0.00100112C25.3586 0.0991791 32.3744 7.10771 32.4424 15.9317C32.476 20.2128 31.0482 23.9917 28.0918 27.1395C25.7524 29.6301 22.9218 31.2664 19.5492 32.0001C19.5492 28.1548 19.5492 24.3466 19.5492 20.4952C20.591 20.4952 21.6284 20.4952 22.6779 20.4952C22.9166 18.9726 23.1484 17.4905 23.3862 15.9704C21.7809 15.9704 20.2248 15.9704 18.6315 15.9704C18.6315 15.0713 18.6272 14.2024 18.6341 13.3343C18.6367 13.0234 18.635 12.7073 18.691 12.4033C18.8848 11.3457 19.5673 10.6852 20.6384 10.6085C21.6026 10.5388 22.5745 10.5612 23.5422 10.5431C23.7016 10.5405 23.861 10.5431 24.0402 10.5431C24.0402 9.22026 24.0402 7.92328 24.0402 6.57807C23.4526 6.50831 22.8598 6.42133 22.2635 6.37051C20.9641 6.25942 19.6638 6.17846 18.3782 6.50917C16.0767 7.10254 14.5472 8.74746 14.249 11.0977C14.112 12.1811 14.1431 13.286 14.1103 14.3815C14.0948 14.8956 14.1077 15.4106 14.1077 15.9541C12.9048 15.9541 11.7252 15.9541 10.5171 15.9541C10.5171 17.4698 10.5171 18.958 10.5171 20.4849C11.6993 20.4849 12.8867 20.4849 14.0905 20.4849C14.0914 24.3397 14.0914 28.1548 14.0914 31.9717Z" fill="#579653"/>
</svg>
