<svg width="33" height="32" viewBox="0 0 33 32" fill="none" xmlns="http://www.w3.org/2000/svg">
<path d="M15.4443 0C16.1112 0 16.7775 0 17.4443 0C17.5243 0.0175 17.6037 0.045 17.685 0.05125C20.1762 0.2375 22.5087 0.9525 24.6337 2.26062C28.7637 4.80312 31.3081 8.46062 32.1993 13.2425C32.3075 13.8231 32.3643 14.4137 32.445 15C32.445 15.6669 32.445 16.3331 32.445 17C32.4193 17.205 32.3906 17.41 32.3687 17.6156C32.0262 20.7806 30.8793 23.6194 28.8593 26.0806C26.3475 29.1419 23.1343 31.0425 19.2312 31.7525C18.64 31.86 18.0406 31.9188 17.445 32C16.7781 32 16.1118 32 15.445 32C15.0543 31.9519 14.6631 31.91 14.2737 31.855C11.3218 31.435 8.67059 30.3106 6.36621 28.4156C3.30684 25.9006 1.40184 22.6919 0.693086 18.7881C0.585586 18.1962 0.526211 17.5963 0.444336 17C0.444336 16.3331 0.444336 15.6669 0.444336 15C0.469336 14.795 0.497461 14.5906 0.519961 14.385C0.889961 10.9956 2.17184 7.99875 4.43246 5.44375C6.91871 2.63437 10.015 0.886875 13.7187 0.24125C14.2906 0.141875 14.8693 0.079375 15.4443 0ZM16.445 6.82062C16.4443 6.8575 16.4437 6.78375 16.4431 6.82062C15.1312 6.82062 13.8187 6.8525 12.5075 6.88375C11.4425 6.90938 10.4218 7.15875 9.52184 7.7625C8.02871 8.76437 7.37559 10.245 7.33871 11.9712C7.28184 14.6562 7.30309 17.3438 7.33434 20.03C7.34621 21.0613 7.61934 22.05 8.20559 22.9219C9.21684 24.4244 10.7087 25.0719 12.4456 25.1075C15.11 25.1625 17.7768 25.1506 20.4418 25.11C21.7631 25.09 22.9825 24.6856 23.9762 23.7525C25.0781 22.7181 25.5231 21.3944 25.5587 19.9344C25.6118 17.7481 25.6131 15.5606 25.6156 13.3737C25.6162 12.7294 25.5681 12.0831 25.5043 11.4412C25.2568 8.9575 23.4837 7.155 20.9993 6.94875C19.4868 6.8225 17.9637 6.8775 16.445 6.82062Z" fill="#579653"/>
<path d="M16.4846 8.47403C17.8577 8.5134 19.2334 8.48403 20.6046 8.5659C22.5502 8.68278 23.8152 9.89028 23.8671 11.8322C23.9409 14.609 23.9409 17.3903 23.8671 20.1672C23.8159 22.1034 22.5452 23.3709 20.6021 23.4228C17.8359 23.4972 15.0646 23.4984 12.299 23.4234C10.3315 23.3697 9.07399 22.1159 9.02087 20.1503C8.94587 17.3634 8.96774 14.5722 9.02274 11.784C9.04649 10.5765 9.59337 9.57465 10.7146 8.9809C11.4034 8.6159 12.1615 8.52465 12.924 8.51278C14.1109 8.49465 15.2977 8.47403 16.4846 8.47403C16.484 8.49653 16.484 8.4509 16.4846 8.47403ZM21.1584 16.0003C21.159 13.3972 19.0684 11.2984 16.4609 11.2853C13.8502 11.2722 11.7302 13.3834 11.729 15.9978C11.7277 18.599 13.8209 20.6997 16.4271 20.7134C19.0365 20.7278 21.1571 18.6147 21.1584 16.0003ZM22.4465 11.089C22.444 10.4859 21.9602 10.0009 21.3577 9.99715C20.7384 9.9934 20.249 10.4815 20.2515 11.1009C20.254 11.7072 20.7334 12.1884 21.3384 12.1915C21.9577 12.1953 22.449 11.7065 22.4465 11.089Z" fill="#579653"/>
<path d="M19.5055 16.0093C19.5011 17.6924 18.1268 19.0624 16.4424 19.0618C14.7468 19.0611 13.3718 17.6736 13.3824 15.9749C13.393 14.2949 14.7761 12.9305 16.4611 12.938C18.1443 12.9461 19.5099 14.3236 19.5055 16.0093Z" fill="#579653"/>
</svg>
