<svg width="21" height="20" viewBox="0 0 21 20" fill="none" xmlns="http://www.w3.org/2000/svg">
<path d="M10.5549 0C8.83114 0.000497635 7.13675 0.446479 5.63611 1.29468C4.13546 2.14289 2.8795 3.36452 1.99005 4.84109C1.10059 6.31766 0.607839 7.99904 0.559585 9.72213C0.51133 11.4452 0.909212 13.1515 1.71464 14.6756L0.964691 17.3002C0.873955 17.6177 0.869782 17.9537 0.952603 18.2734C1.03542 18.5931 1.20223 18.8848 1.43572 19.1183C1.66922 19.3518 1.96092 19.5186 2.28058 19.6015C2.60025 19.6843 2.93626 19.6802 3.25378 19.5895L5.87868 18.8395C7.22071 19.5494 8.70676 19.9444 10.2241 19.9945C11.7415 20.0447 13.2504 19.7487 14.6364 19.1289C16.0224 18.5092 17.249 17.582 18.2234 16.4177C19.1977 15.2534 19.8942 13.8825 20.2599 12.409C20.6257 10.9355 20.6511 9.39809 20.3343 7.9133C20.0175 6.42851 19.3668 5.03534 18.4315 3.83944C17.4961 2.64353 16.3008 1.6763 14.9361 1.01106C13.5714 0.345832 12.0731 7.14848e-05 10.5549 0ZM10.5549 17.7765C9.15837 17.7775 7.7874 17.4019 6.5864 16.6892C6.45626 16.6118 6.31168 16.5619 6.16153 16.5423C6.01138 16.5228 5.85882 16.5342 5.71323 16.5758L3.28443 17.2697L3.97826 14.8409C4.01985 14.6954 4.03124 14.5428 4.01174 14.3927C3.99223 14.2425 3.94225 14.098 3.86485 13.9679C2.98898 12.492 2.62582 10.7679 2.83194 9.06409C3.03805 7.36031 3.80186 5.77253 5.0044 4.54809C6.20693 3.32364 7.78065 2.53129 9.48043 2.29445C11.1802 2.0576 12.9106 2.38957 14.402 3.23865C15.8935 4.08772 17.0623 5.40622 17.7263 6.98875C18.3903 8.57129 18.5123 10.329 18.0732 11.9881C17.6342 13.6472 16.6588 15.1145 15.2989 16.1615C13.939 17.2084 12.2711 17.7762 10.5549 17.7765ZM9.44388 9.99917C9.44388 10.2922 9.357 10.5786 9.19422 10.8222C9.03145 11.0658 8.80009 11.2557 8.5294 11.3678C8.25872 11.4799 7.96086 11.5092 7.6735 11.4521C7.38615 11.3949 7.12219 11.2538 6.91502 11.0467C6.70784 10.8395 6.56676 10.5755 6.5096 10.2882C6.45244 10.0008 6.48178 9.70296 6.5939 9.43227C6.70602 9.16159 6.89589 8.93023 7.1395 8.76745C7.38311 8.60468 7.66952 8.5178 7.96251 8.5178C8.35539 8.5178 8.73218 8.67387 9.00999 8.95168C9.2878 9.22949 9.44388 9.60628 9.44388 9.99917ZM14.6287 9.99917C14.6287 10.2922 14.5418 10.5786 14.379 10.8222C14.2162 11.0658 13.9849 11.2557 13.7142 11.3678C13.4435 11.4799 13.1457 11.5092 12.8583 11.4521C12.5709 11.3949 12.307 11.2538 12.0998 11.0467C11.8926 10.8395 11.7516 10.5755 11.6944 10.2882C11.6372 10.0008 11.6666 9.70296 11.7787 9.43227C11.8908 9.16159 12.0807 8.93023 12.3243 8.76745C12.5679 8.60468 12.8543 8.5178 13.1473 8.5178C13.5402 8.5178 13.917 8.67387 14.1948 8.95168C14.4726 9.22949 14.6287 9.60628 14.6287 9.99917Z" fill="#579653"/>
</svg>
