<svg width="35" height="32" viewBox="0 0 35 32" fill="none" xmlns="http://www.w3.org/2000/svg">
<g clip-path="url(#clip0_2275_21760)">
<path d="M34.4446 14.8711C34.4446 15.6209 34.4446 16.3707 34.4446 17.1205C34.4269 17.2122 34.3915 17.2955 34.3826 17.3871C34.3029 17.9203 34.2675 18.4619 34.1524 18.9951C33.3201 22.9274 31.2482 26.1599 27.8837 28.6175C23.855 31.5501 19.2774 32.5665 14.266 31.7084C10.618 31.0836 7.51023 29.459 5.0045 26.8847C1.38314 23.169 -0.0689383 18.7618 0.603978 13.7714C1.02898 10.6722 2.37481 7.93127 4.55294 5.57355C7.20033 2.70763 10.5029 0.916428 14.4873 0.249935C15.0717 0.149961 15.6649 0.0833116 16.2493 0C17.0462 0 17.843 0 18.6399 0C19.1712 0.0666493 19.7113 0.116636 20.2425 0.208279C23.3238 0.708149 26.0774 1.89117 28.4503 3.80734C31.5404 6.30669 33.4618 9.43088 34.1878 13.2132C34.2852 13.7631 34.3561 14.3213 34.4446 14.8711ZM17.8962 6.88154C17.8962 7.0315 17.8962 7.15647 17.8962 7.27311C17.8962 11.2471 17.8962 15.2294 17.8873 19.2033C17.8873 19.4199 17.8696 19.6366 17.843 19.8532C17.6571 21.1778 16.4352 22.1692 14.992 22.1692C13.5576 22.1692 12.3003 21.1278 12.1321 19.8115C11.9639 18.4702 12.8493 17.1789 14.2305 16.8789C14.7529 16.7623 15.3107 16.8123 15.8774 16.779C15.8774 15.8709 15.8774 14.8878 15.8774 13.8464C15.3993 13.8464 14.9389 13.8214 14.4785 13.8547C10.9722 14.1047 8.47533 17.0539 8.98002 20.3114C9.49356 23.5855 12.9998 25.7766 16.4175 24.9602C19.2331 24.2853 21.0482 22.0942 21.0482 19.3616C21.0482 17.3122 21.0305 15.2627 21.0305 13.2049C21.0305 13.0966 21.0305 12.9883 21.0305 12.8217C22.5357 13.8381 24.1206 14.3963 25.918 14.3796C25.918 13.3715 25.918 12.4134 25.918 11.447C23.3326 11.372 21.1722 9.58917 21.004 6.87321C19.9946 6.88154 18.9675 6.88154 17.8962 6.88154Z" fill="#579653"/>
</g>
<defs>
<clipPath id="clip0_2275_21760">
<rect width="34" height="32" fill="white" transform="translate(0.444336)"/>
</clipPath>
</defs>
</svg>
