<svg width="39" height="45" viewBox="0 0 39 45" fill="none" xmlns="http://www.w3.org/2000/svg">
<path d="M38.8377 45C25.9594 45 13.0304 45 0.152106 45C0.101404 44.7991 0 44.548 0 44.2969C0.405616 39.1239 0.811231 33.9509 1.21685 28.7277C1.62246 23.3538 2.02808 17.9297 2.43369 12.5056C2.4844 12.0536 2.6365 11.9531 3.09282 11.9531C4.96879 11.9531 6.84476 11.9531 8.72074 11.9531C8.87284 11.9531 9.02495 11.9531 9.22775 11.9531C9.22775 11.3002 9.22775 10.6975 9.22775 10.0949C9.27846 5.57478 12.2699 1.65737 16.6302 0.401786C17.2387 0.251116 17.8978 0.15067 18.5062 0C19.1653 0 19.8245 0 20.4836 0C20.585 0.0502232 20.6357 0.0502232 20.7371 0.100446C23.7792 0.502232 26.1622 1.90848 27.9368 4.36942C29.1536 6.07701 29.762 7.98549 29.8127 10.0949C29.8127 10.6975 29.8127 11.3504 29.8127 12.0033C30.0156 12.0033 30.2184 12.0033 30.3705 12.0033C32.2464 12.0033 34.1224 12.0033 35.9984 12.0033C36.3533 12.0033 36.5561 12.1038 36.5561 12.5056C36.8096 15.8705 37.0631 19.2355 37.3166 22.6004C37.5701 25.865 37.8237 29.1295 38.0772 32.394C38.3814 36.4118 38.6856 40.4297 38.9898 44.4475C39.0405 44.5982 38.8884 44.7991 38.8377 45ZM12.0671 11.9029C17.0359 11.9029 22.0046 11.9029 26.872 11.9029C26.872 10.9989 26.9734 10.0949 26.872 9.24107C26.4664 5.77567 23.8299 3.26451 20.2301 2.8125C17.0866 2.41071 13.8923 4.3192 12.5741 7.33259C11.9657 8.83929 12.0164 10.346 12.0671 11.9029ZM9.22775 15.1172C7.8588 15.4688 6.89546 17.1261 7.09827 18.7333C7.35178 20.5915 8.92354 21.8973 10.7488 21.7969C12.5234 21.7467 14.0444 20.2902 14.1458 18.5324C14.2472 17.0257 13.3346 15.4688 12.0164 15.1674C12.0164 15.3181 12.0164 15.4688 12.0164 15.6696C12.0164 16.5737 12.0164 17.4777 12.0164 18.3315C12.0164 18.9844 11.56 19.4866 10.9516 19.6875C10.3939 19.8382 9.73477 19.5871 9.43056 19.0848C9.27846 18.8337 9.22775 18.4821 9.22775 18.231C9.17705 17.1261 9.22775 16.1217 9.22775 15.1172ZM26.9734 15.1172C25.5538 15.4688 24.6411 17.1763 24.8947 18.7333C25.1989 20.5915 26.7706 21.8471 28.5959 21.7467C30.3705 21.6462 31.8408 20.24 31.9422 18.4821C32.0436 16.9754 31.131 15.4185 29.8127 15.1172C29.8127 16.1217 29.8127 17.1261 29.8127 18.1306C29.8127 19.0346 29.2043 19.6875 28.3931 19.6875C27.5819 19.6875 26.9734 19.0346 26.9734 18.1306C26.9734 17.1763 26.9734 16.1719 26.9734 15.1172Z" fill="#DEF4BC"/>
</svg>
