<svg width="47" height="47" viewBox="0 0 47 47" fill="none" xmlns="http://www.w3.org/2000/svg">
<path d="M23.5239 0.312541C36.3474 0.336421 46.7113 10.7481 46.6875 23.5478C46.6397 36.3474 36.2519 46.7113 23.5 46.6875C10.6526 46.6397 0.288661 36.228 0.312541 23.4284C0.336421 10.6526 10.7481 0.288661 23.5239 0.312541ZM43.9413 23.4761C43.9413 12.1809 34.8191 3.05874 23.5239 3.03486C12.2048 3.01098 3.05874 12.157 3.05874 23.4761C3.05874 34.7714 12.1809 43.8935 23.4761 43.9174C34.7714 43.9651 43.9413 34.7952 43.9413 23.4761Z" fill="#DEF4BC"/>
<path d="M23.2474 44.7552C16.6383 44.5512 11.2264 41.9902 7.28592 36.9134C7.06146 36.6188 7.01158 36.3468 7.16122 35.9842C8.85713 31.6553 13.4959 29.2303 17.4614 29.2983C21.4268 29.3663 25.4172 29.2756 29.3826 29.3209C33.6972 29.3663 36.9144 31.1794 38.9595 34.5337C40.3312 36.7774 40.2563 36.2108 38.6352 38.0466C34.7696 42.4435 29.632 44.6192 23.2474 44.7552Z" fill="#DEF4BC"/>
<path d="M23.4757 9.97412C28.586 9.97412 32.7172 14.1054 32.7411 19.1918C32.7411 24.3021 28.5621 28.4811 23.4757 28.4572C18.3892 28.4333 14.2341 24.2782 14.2341 19.1918C14.2341 14.0815 18.3654 9.97412 23.4757 9.97412Z" fill="#DEF4BC"/>
</svg>
