<?xml version="1.0" encoding="utf-8"?>
<!-- Generator: Adobe Illustrator 28.0.0, SVG Export Plug-In . SVG Version: 6.00 Build 0)  -->
<svg version="1.1" id="Layer_1" xmlns="http://www.w3.org/2000/svg" xmlns:xlink="http://www.w3.org/1999/xlink" x="0px" y="0px"
	 viewBox="0 0 880.15 1000" style="enable-background:new 0 0 880.15 1000;" xml:space="preserve">
<style type="text/css">
	.st0{fill:#C2E8FA;}
	.st1{fill:#00B4EC;}
	.st2{fill:#05B4EA;}
	.st3{opacity:0.5;clip-path:url(#SVGID_00000156573128927007073040000005265608034405914298_);}
	.st4{fill:#C1C2E2;}
	.st5{fill:#B390C2;}
	.st6{fill:#F28FBB;}
	.st7{clip-path:url(#SVGID_00000103951392275598926140000008910727636102001586_);}
	.st8{fill:#F1B2D1;}
	.st9{fill:#E6428D;}
	.st10{fill:#2C2568;}
	.st11{fill:#FFFFFF;}
	.st12{opacity:0.5;}
	.st13{fill:#F5C31B;}
	.st14{fill:#FFD317;}
	.st15{fill:#2F2F88;}
</style>
<path class="st0" d="M68.9,26.42L318.61,3.36c44.47-4.11,82.85,30.89,82.85,75.55v234.52c0,45.21-39.29,80.39-84.23,75.41
	L67.52,361.18C29.08,356.92,0,324.44,0,285.77v-183.8C0,62.77,29.86,30.02,68.9,26.42z"/>
<g>
	<path class="st1" d="M398.64,66.68c9.72-8.44,15.51-18.08,17.37-28.94c-2.57,0.57-5.5,0.21-8.79-1.07
		c-5.71-2.13-8.58-7.11-8.58-14.92c0-6.54,2.29-11.72,6.86-15.56C410.36,2.06,416.93,0,425.22,0c20.44,0,30.66,9.65,30.66,28.94
		c0,13.58-3.57,25.22-10.72,34.95c-7.86,10.72-18.15,16.08-30.87,16.08c-7,0-11.65-2.22-13.94-6.65
		C399.07,71.03,398.5,68.82,398.64,66.68z M337.97,66.68c9.72-8.44,15.51-18.08,17.37-28.94c-2.57,0.57-5.5,0.28-8.79-0.86
		c-5.71-2.14-8.58-7.15-8.58-15.01c0-6.58,2.29-11.79,6.86-15.65C349.69,2.07,356.26,0,364.55,0c20.44,0,30.66,9.65,30.66,28.94
		c0,13.58-3.57,25.22-10.72,34.95c-7.86,10.72-18.15,16.08-30.87,16.08c-7,0-11.65-2.22-13.94-6.65
		C338.39,71.03,337.82,68.82,337.97,66.68z"/>
</g>
<g>
	<g>
		<path class="st2" d="M828.2,785.09c-1.12,0-2.26-0.29-3.3-0.91c-3.05-1.82-4.04-5.78-2.22-8.83
			c27.07-45.25,42.42-97.12,44.38-149.99c2.09-56.54-11.08-112.61-38.08-162.14c-26.22-48.09-64.76-88.97-111.45-118.2
			c-3.01-1.89-3.93-5.86-2.04-8.87c1.89-3.01,5.86-3.92,8.87-2.04c48.56,30.41,88.65,72.92,115.92,122.95
			c28.11,51.56,41.81,109.92,39.64,168.77c-2.03,55.04-18.01,109.02-46.19,156.13C832.53,783.97,830.39,785.09,828.2,785.09z"/>
	</g>
	<g>
		<path class="st2" d="M269.52,806.84c-2,0-3.97-0.93-5.22-2.67c-40.58-56.23-62.04-122.6-62.04-191.91
			c0-80.88,29.84-158.72,84.01-219.21c2.37-2.65,6.44-2.87,9.09-0.5c2.65,2.37,2.87,6.44,0.5,9.09
			c-52.06,58.12-80.73,132.92-80.73,210.62c0,66.59,20.61,130.35,59.6,184.38c2.08,2.88,1.43,6.9-1.45,8.99
			C272.14,806.44,270.82,806.84,269.52,806.84z"/>
	</g>
	<g>
		<defs>
			<path id="SVGID_1_" d="M442.05,438.52c0,0-30.34-48.55-48.75-47.58c-18.42,0.97-15.93,9.7-15.93,9.7s-32.71-23.61-41.63,6.48
				s5.21,54.09,27.95,58.07c0,0,29.62,29.36,56.39,62.38c0,0,12.68-1.41,13.68,24.5c1,25.91,3.62,39.37,3.62,39.37
				s15.87,22.6-10.4,29.8c0,0-17.82,9.57-27.21,31.92c0,0,0.67,17.93-19.29,9.81c-19.95-8.12-51.44,24.05-21.92,57.9
				s93.29,21.61,93.29,21.61l76.58-63.28l-7.59-240.15L442.05,438.52z"/>
		</defs>
		<use xlink:href="#SVGID_1_"  style="overflow:visible;fill:#FFFFFF;"/>
		<clipPath id="SVGID_00000043443392910722887990000016276820346103129222_">
			<use xlink:href="#SVGID_1_"  style="overflow:visible;"/>
		</clipPath>
		<g style="opacity:0.5;clip-path:url(#SVGID_00000043443392910722887990000016276820346103129222_);">
			<path class="st4" d="M380.47,480.28c0,0,24.44,38.31,39.61,47.28s16.09,14.65,19.18,3.08s18.59-41.08,29.26-54.24
				c10.67-13.16,0,0,0,0l-10.8-8.95c0,0-14.02,30.99-37.64,24.07c-23.62-6.92-41.43-41.49-41.43-41.49s-25.44,10.35-40.82-21.75
				c-6.57-13.71-0.06,10.8-0.06,10.8s20.62,19.03,31.66,30.12S380.47,480.28,380.47,480.28"/>
		</g>
		<g style="opacity:0.5;clip-path:url(#SVGID_00000043443392910722887990000016276820346103129222_);">
			<path class="st4" d="M493.36,666.1l-21.88-23.64c0,0-23.17,7.98-34.66,19.19c-11.49,11.21-36.1,9.49-36.1,9.49
				s6.56,3.67,11.96,12.45c10.63,17.31-7.98,35.93-32.21,23.61c-30.28-15.4-23.75-31.02-23.75-31.02s-22.92,25.57,15.54,56.07
				c38.46,30.5,100.84-29.89,127.28-66.16"/>
		</g>
	</g>
	<g>
		<g>
			<path class="st5" d="M444.81,520c-4.95,32.7-1.8,66.85,11.9,97.09c0.93,2.13,1.84,4.3,2.69,6.5c1.13,2.9-2.81,5.14-4.71,2.67
				c-17.93-22.34-26.46-52.17-22.98-80.63c1.27-9.52,3.54-18.81,8.17-27.51c0.69-1.29,2.29-1.78,3.58-1.09
				C444.57,517.62,445.06,518.84,444.81,520L444.81,520z"/>
		</g>
		<g>
			<path class="st5" d="M393.3,672.53c-0.85,0-1.72-0.17-2.55-0.53c-3.26-1.41-4.77-5.2-3.36-8.46
				c19.72-45.67,55.78-59.33,57.3-59.89c3.34-1.22,7.03,0.49,8.26,3.83c1.22,3.33-0.48,7.02-3.81,8.25
				c-0.16,0.06-8.29,3.17-18.43,11.2c-9.35,7.4-22.4,20.64-31.5,41.71C398.16,671.08,395.79,672.53,393.3,672.53z"/>
		</g>
		<g>
			<path class="st5" d="M409.15,683.53c-8.75-6.49-19.8-12.3-30.96-11.39c-9.89,1.23-20.08,8.48-21.6,18.62
				c-2.02,17.62,9.21,31.55,24.85,38.67c5.4,2.63,11.24,4.79,17.22,6.91c3.36,1.18,5.12,4.87,3.93,8.23
				c-1.15,3.24-4.64,4.98-7.9,4.02c-6.33-1.88-12.72-4.07-19.03-6.98c-17.15-7.32-30.77-22.26-32.61-41.51
				c-3.72-23.24,17.43-42,39.82-40.22c9.23,1.09,17.81,5.07,24.59,11.28c2.33,2.5,10.7,9.68,5.71,12.85
				C411.83,684.81,410.24,684.5,409.15,683.53L409.15,683.53z"/>
		</g>
		<g>
			<path class="st5" d="M434.39,549.04c-1.89,0-3.77-0.83-5.04-2.43c-30.77-38.68-57.76-66.15-63.37-71.77
				c-18.06-6.2-33.9-25.05-38.01-45.51c-3.15-15.67,1.34-29.83,12.32-38.84c5.7-4.68,12.22-6.68,18.86-5.77
				c6.21,0.85,11.56,4.04,15.63,7.39c3.72-4.22,9.48-6.77,15.75-6.81c10.04-0.02,19.69,5.49,28.94,16.49
				c6.41,7.62,10.26,15.21,10.42,15.53c1.6,3.17,0.32,7.04-2.85,8.64c-3.18,1.6-7.04,0.32-8.64-2.85
				c-3.53-6.96-15.36-24.95-27.7-24.95c-0.03,0-0.05,0-0.08,0c-4.47,0.03-6.72,2.7-6.94,3.7c1.46,2.96,0.45,6.56-2.38,8.32
				c-2.9,1.8-6.71,1.02-8.67-1.78c-1.93-2.73-8.47-10.04-15.26-10.95c-3.08-0.41-5.99,0.56-8.92,2.97
				c-9.34,7.67-9.43,18.57-7.87,26.36c3.3,16.4,16.49,31.98,30.68,36.23c1,0.3,1.91,0.84,2.66,1.57c0.3,0.3,30.57,30.1,65.49,74
				c2.21,2.78,1.75,6.83-1.03,9.04C437.21,548.58,435.79,549.04,434.39,549.04z"/>
		</g>
	</g>
	<g>
		<path class="st6" d="M274.05,857.42c0,0,29.51,73.66,128.27,109.09c98.76,35.43,157.17,33.67,191.46,21.96
			c34.29-11.71,149.13-54.29,214.16-162.3C807.94,826.17,316.5,828.38,274.05,857.42z"/>
	</g>
	<g>
		<defs>
			
				<ellipse id="SVGID_00000147199348152424917680000001875276407855976894_" transform="matrix(0.996 -0.0891 0.0891 0.996 -72.0983 51.7573)" cx="543.58" cy="833.3" rx="270.6" ry="75.67"/>
		</defs>
		<use xlink:href="#SVGID_00000147199348152424917680000001875276407855976894_"  style="overflow:visible;fill:#F1B2D1;"/>
		<clipPath id="SVGID_00000030483057954336089270000001269407776356445849_">
			<use xlink:href="#SVGID_00000147199348152424917680000001875276407855976894_"  style="overflow:visible;"/>
		</clipPath>
		<g style="clip-path:url(#SVGID_00000030483057954336089270000001269407776356445849_);">
			<path class="st8" d="M270.38,866.04c0,0,69.81,46.52,257.75,33.77c187.94-12.75,282.58-75.33,294.67-87.67
				c0,0-15.41,38.62-77.45,61.87s-250.61,57.35-357.15,42.58S270.38,866.04,270.38,866.04z"/>
		</g>
	</g>
	<g>
		<g>
			<path class="st9" d="M475.96,885.42c-0.09-3.02,2.51-5.54,5.78-5.62l0,0c3.29-0.08,6,2.29,6.1,5.32l0,0
				c0.08,3.02-2.52,5.54-5.8,5.62l0,0c-0.02,0-0.03,0-0.05,0l0,0C478.73,890.81,476.03,888.44,475.96,885.42z M447.85,890.88
				c-3.28-0.06-5.87-2.56-5.8-5.58l0,0c0.08-3.03,2.8-5.43,6.07-5.37l0,0c3.28,0.08,5.87,2.56,5.8,5.59l0,0
				c-0.08,2.94-2.66,5.29-5.84,5.35l0,0C448.02,890.87,447.94,890.88,447.85,890.88z M509.82,884.12c-0.21-3.03,2.25-5.64,5.54-5.85
				l0,0c3.27-0.22,6.1,2.05,6.31,5.07l0,0c0.23,3.01-2.25,5.62-5.52,5.84l0,0c-0.1,0-0.19,0-0.29,0.01l0,0
				C512.7,889.25,510.04,887.04,509.82,884.12z M413.65,889.37L413.65,889.37L413.65,889.37c-3.26-0.23-5.71-2.87-5.45-5.88l0,0
				c0.26-3.02,3.14-5.27,6.4-5.03l0,0c3.28,0.23,5.71,2.87,5.45,5.88l0,0c-0.25,2.82-2.79,4.98-5.81,5.04l0,0
				C414.06,889.38,413.86,889.38,413.65,889.37z M543.61,881.5c-0.36-2.99,2.01-5.7,5.26-6.04l0,0c3.27-0.33,6.2,1.83,6.54,4.84l0,0
				c0.35,2.99-2.01,5.7-5.28,6.03l0,0c-0.17,0.02-0.36,0.04-0.53,0.04l0,0C546.58,886.43,543.94,884.34,543.61,881.5z
				 M577.27,877.66c-0.48-2.99,1.75-5.77,5-6.23l0,0c3.23-0.45,6.26,1.6,6.74,4.59l0,0c0.48,2.99-1.75,5.77-5,6.23l0,0
				c-0.25,0.04-0.51,0.06-0.76,0.06l0,0C580.3,882.36,577.71,880.4,577.27,877.66z M379.55,885.8L379.55,885.8L379.55,885.8
				c-3.25-0.47-5.46-3.25-4.94-6.25l0,0c0.5-2.98,3.55-5.02,6.79-4.57l0,0c3.24,0.47,5.46,3.25,4.94,6.25l0,0
				c-0.46,2.65-2.92,4.57-5.75,4.63l0,0C380.24,885.87,379.89,885.84,379.55,885.8z M610.73,872.56c-0.62-2.97,1.5-5.84,4.71-6.42
				l0,0c3.21-0.58,6.34,1.34,6.96,4.32l0,0c0.62,2.96-1.5,5.83-4.71,6.41l0,0c-0.34,0.07-0.69,0.11-1.02,0.11l0,0
				C613.84,877.03,611.29,875.21,610.73,872.56z M345.72,879.29c-3.16-0.81-5-3.83-4.12-6.74l0,0c0.88-2.91,4.15-4.62,7.33-3.82l0,0
				c3.16,0.8,5,3.81,4.1,6.73l0,0c-0.72,2.37-3.05,3.95-5.61,4l0,0C346.86,879.49,346.29,879.43,345.72,879.29z M643.92,866.1
				c-0.77-2.94,1.19-5.9,4.37-6.62l0,0c3.19-0.72,6.4,1.06,7.17,4l0,0c0.77,2.94-1.17,5.9-4.37,6.62l0,0
				c-0.44,0.1-0.86,0.14-1.29,0.15l0,0C647.08,870.3,644.6,868.63,643.92,866.1z M676.73,858.09c-0.96-2.89,0.8-5.94,3.94-6.83l0,0
				c3.14-0.89,6.46,0.73,7.42,3.61l0,0c0.96,2.89-0.82,5.96-3.96,6.85l0,0c-0.54,0.15-1.08,0.22-1.62,0.23l0,0
				C679.93,862,677.51,860.49,676.73,858.09z M312.93,867.42c0,0,0,0-0.02,0l0,0c-2.85-1.49-3.83-4.83-2.2-7.46l0,0
				c1.63-2.63,5.26-3.54,8.11-2.05l0,0c2.85,1.48,3.83,4.82,2.2,7.45l0,0c-1.07,1.74-3.02,2.73-5.06,2.77l0,0
				C314.93,868.15,313.89,867.92,312.93,867.42z M708.93,848.24c-1.17-2.82,0.33-5.99,3.39-7.09l0,0c3.05-1.12,6.49,0.26,7.68,3.09
				l0,0c1.19,2.81-0.32,5.99-3.38,7.09l0,0l0,0l0,0c-0.67,0.25-1.37,0.37-2.05,0.38l0,0C712.16,851.76,709.86,850.43,708.93,848.24z
				 M740.11,835.88c-1.55-2.66-0.44-5.98,2.45-7.4l0,0c2.91-1.43,6.49-0.42,8.04,2.24l0,0c1.53,2.66,0.44,5.98-2.47,7.41l0,0l0,0
				l0,0c-0.84,0.41-1.77,0.63-2.67,0.65l0,0C743.31,838.82,741.2,837.76,740.11,835.88z M286.46,840.78
				c-0.38-3.01,1.96-5.73,5.21-6.09l0,0c3.27-0.35,6.21,1.8,6.58,4.8l0,0c0.38,2.99-1.96,5.71-5.21,6.07l0,0
				c-0.2,0.02-0.39,0.04-0.58,0.04l0,0C289.44,845.66,286.81,843.61,286.46,840.78z M769,819.52c-2.2-2.22-2.01-5.7,0.41-7.73
				l0.02,0c2.42-2.03,6.18-1.87,8.38,0.35l0,0c2.22,2.24,2.03,5.7-0.41,7.73l0,0l0,0l0,0c-1.1,0.93-2.48,1.41-3.88,1.44l0,0
				C771.88,821.34,770.22,820.73,769,819.52z M782.15,789.72c0-0.03-0.02-0.06-0.02-0.09l0,0c0-0.03,0-0.08-0.02-0.12l0.02,0
				c-0.41-2.99,1.91-5.74,5.16-6.12l0,0c3.25-0.38,6.21,1.75,6.63,4.75l0,0l0,0l0,0c0,0.08,0.02,0.14,0.02,0.22l0,0
				c0,0.05,0.02,0.11,0.02,0.16l0,0c0.35,3.01-2.01,5.71-5.26,6.04l0,0c-0.19,0.02-0.36,0.04-0.54,0.04l0,0
				C785.11,794.65,782.47,792.56,782.15,789.72z"/>
		</g>
	</g>
	<polygon class="st10" points="367.66,948.46 334.33,977.49 326.09,970.47 350.71,934.77 	"/>
	<circle class="st10" cx="326.09" cy="977.49" r="10.98"/>
	<g>
		<polygon class="st10" points="743.96,906.69 783.76,932.43 790.71,924.14 758.4,890.36 		"/>
	</g>
	<g>
		<circle class="st10" cx="791.88" cy="931.06" r="10.98"/>
	</g>
	<g>
		<path class="st11" d="M388.44,801.28c0,0-17.44,6.22-13.38,22.69c4.25,17.21,71.58,31.47,171.63,22.35
			c94.32-8.6,163.2-35.05,163.15-57.97c-0.02-10.51-19-13.19-19-13.19"/>
	</g>
	<g>
		<path class="st2" d="M498.69,855.83c-72.33,0-130.75-14.87-134.62-36.95c-2.5-14.31,11.32-22,18.99-24.07l3.35,12.43l-1.68-6.21
			l1.71,6.21c-0.11,0.03-10.8,3.1-9.69,9.43c1.75,10.01,63.04,33.83,170.32,24.09c45.16-4.1,86.96-13.23,117.71-25.72
			c31.27-12.7,41.67-25.07,41.08-31.82c-0.27-3.1-8.55-5.41-14.12-5.63l0.51-12.86c24.3,0.97,26.29,15.69,26.43,17.37
			c1.38,15.76-15.58,31.27-49.06,44.87c-31.89,12.95-75,22.4-121.39,26.61C531.34,855.1,514.67,855.83,498.69,855.83z"/>
	</g>
	<g>
		<path class="st9" d="M556.85,1000c-50.85,0-144.58-14.39-206.93-52.13c-43.42-26.29-63.67-55.92-73.4-70.17
			c-10.19-14.91-8.57-34.95,3.78-47.75c34.25-35.47,137.1-66.44,255.92-77.07c116.76-10.44,222.82,1.32,263.92,29.28
			c14.95,10.17,20.73,29.72,13.74,46.48c-1.96,4.71-4.41,10.22-7.69,15.43v0c-61.55,97.8-164.4,138.04-220.22,153.32
			C579.79,999.08,569.68,1000,556.85,1000z M619.96,761.92c-26.28,0-54.07,1.23-82.59,3.78c-114.15,10.21-216.05,40.31-247.81,73.19
			c-8.13,8.42-9.17,21.65-2.46,31.46c9.27,13.57,28.46,41.65,69.5,66.49c79.36,48.04,201.66,54.78,225.98,48.12
			c54.02-14.79,153.5-53.64,212.73-147.76c2.77-4.39,4.85-9.1,6.7-13.52c4.64-11.15,0.82-24.14-9.1-30.89
			C763.78,773,698.74,761.92,619.96,761.92z"/>
	</g>
	<g>
		<defs>
			<path id="SVGID_00000077306148317396140290000012114527143870630309_" d="M691.91,777.26c2.9,22.74-72,46.63-148.09,53.71
				c-74.76,6.96-150.68-2.49-154.53-23.52c-9.65-52.79,20.26-99.43,56.34-127.26c41.99-32.38,94.33-41.37,143.95-23.65
				C638.7,674.07,684.21,716.79,691.91,777.26z"/>
		</defs>
		<use xlink:href="#SVGID_00000077306148317396140290000012114527143870630309_"  style="overflow:visible;fill:#83D3EF;"/>
		<clipPath id="SVGID_00000124152111890429139530000003817221741710865312_">
			<use xlink:href="#SVGID_00000077306148317396140290000012114527143870630309_"  style="overflow:visible;"/>
		</clipPath>
	</g>
	<g>
		<path class="st2" d="M495.71,835.58c-54.07,0-108.85-8.28-113-30.97c-8.85-48.41,13.11-98.32,58.74-133.51
			c44.05-33.97,98.74-42.94,150.04-24.62c45.84,16.36,97.89,58.05,106.54,125.97c0.64,5.03-0.98,10.02-4.83,14.82
			c-18.33,22.87-88.85,40.51-149.04,46.12C529.09,834.78,512.43,835.58,495.71,835.58z M538.53,650.07
			c-31.51,0-62.48,10.61-89.22,31.23c-61.86,47.7-56.92,104.68-53.94,121c0.74,4.03,11.1,12.16,45.25,17.04
			c28.94,4.14,66.25,4.59,102.35,1.23c72.42-6.74,128.15-26.32,140.2-41.35c1.58-1.97,2.29-3.7,2.11-5.14v0
			c-7.91-62.14-55.87-100.39-98.1-115.47C571.15,652.89,554.76,650.07,538.53,650.07z"/>
	</g>
	<g>
		<path class="st9" d="M739.56,870.64c-13.52,11.67-31.29,15.25-47.79,20.65c-16.61,5.01-33.5,8.94-50.47,12.43
			c-91.21,16.88-185.96,23.43-277.67,6.77c-10.69-2.07-21.37-4.9-30.78-11.07c11.2-0.73,21.57,0.81,32.23,2.44
			c91,11.2,183.78,5.5,273.89-10.38c16.8-2.95,33.5-6.46,50.11-10.29C706.15,877.63,721.66,870.83,739.56,870.64L739.56,870.64z"/>
	</g>
	<g>
		<path class="st11" d="M486.05,470.14l-10.34,170.75c0,0-5.49,8.87,34.86,24.68c47.1,18.45,73.02-1.48,89.92,19.88
			c16.89,21.36,30.31,62.12,40.97,67.21s47.04,15.75,67.31,0c20.27-15.75,30.44-25.81,31.31-38.89
			c0.87-13.08-33.74-21.94-33.74-21.94s6.37-14.33-6.75-33.07c-13.12-18.74-33.5-43.17-33.5-43.17l-5.1-43.68
			c0,0-9.54-18.46,15.72-7.04s26.1,18.93,38.45,25.22s25.29,15.28,25.94-10.87c0,0,20.1,8.14,37.24-7.27
			c17.14-15.4-4.69-54.39-50.08-75.49c-45.39-21.1-65.97-33.37-127.77-33.37S486.05,470.14,486.05,470.14z"/>
	</g>
	<g class="st12">
		<path class="st4" d="M460.45,626.76c0,0,7.92,7.6,55.3,17.5c47.38,9.91,120.74-8.87,79.81-32.26l-1.92-5.55
			c-2.38-6.87-1.68-14.44,1.92-20.76l0,0c0,0,30.8-10.43,21.01-36.12c-12.63-33.17-85.8-13.04-128.73-61.12
			c0,0,56.88,36.42,134.67-3.97c0,0,25.93-24.38,65.85-6.21c39.91,18.17,21.49,9.54,21.49,9.54s-31.97-6.77-41.47,16.18
			c-9.5,22.94,8.73,41.64,35.12,48.07c0,0,23.19,45.88,37.61,27.14c0,0-5.75,29.91-25.94,10.87
			c-20.19-19.04-38.45-25.22-38.45-25.22s-16.66-9.03-13.64,20.84s23.15,54.36,23.15,54.36s-27.92-12.71-47.31-1
			c-19.39,11.72-13.36,33.11,0.1,45.38c13.45,12.27,49.34,7.69,49.34,7.69s-28.24,13.47-29.71,32.51s53.6,35.83,70.15,12.31
			c0,0-64.07,37.93-87.58,15.75c0,0-26-56.91-40.73-67.26c-14.72-10.35-21.11-11.84-45.04-13.35S494.8,682.74,460.45,626.76z"/>
	</g>
	<g>
		<path class="st11" d="M433.79,719.23c10.75-16.87,26.92-30.24,45.54-37.51c10.9-4.06,22.94-5.58,34.38-4.82
			c3.22,0.13,5.72,2.84,5.6,6.06c-0.11,3.15-2.71,5.53-5.75,5.63c-6.54,0.71-12.98,1.61-18.92,4.02
			c-5.87,2.05-11.67,5.29-16.62,9.03c-9.82,7.38-18.06,17.26-23.24,28.4c-1.15,6.61-7.44,11.04-14.06,9.89
			c-8.17-1.26-12.67-10.91-8.48-17.99C432.23,721.94,433.79,719.23,433.79,719.23L433.79,719.23z"/>
	</g>
	<g>
		<circle class="st11" cx="428.85" cy="756.9" r="10.4"/>
	</g>
	<g>
		<g>
			<path class="st5" d="M597.76,669.46c-14.17,5.08-29.33,8.49-44.41,9.15c-25.4,1.14-53.76-3.74-71.96-23.08
				c-2.25-2.74,1.31-6.33,4.1-4.16c24.39,14.44,53.98,16.54,81.8,14.83c8.53-0.58,20.43-2.17,28.86-3.11
				C600.05,662.5,601.5,668.12,597.76,669.46L597.76,669.46z"/>
		</g>
		<g>
			<path class="st5" d="M579.53,665.5c16.21,6.68,30.99,17.07,40.54,32.06c9.26,16.35,15.17,35.1,26.43,50.11
				c-0.18,0.19,2.37,1.64,4.86,2.36c10.73,3.36,23.27,3.32,34.46,1.24c13.02-2.44,25.34-8.28,35.45-16.83
				c4.86-4.19,10.21-9.34,11.82-15.48c1.91-7.13-3.75-12.88-9.67-16.23c-15.07-8.52-34.43-5.2-48.62,3.68
				c-1.17,0.93-2.91,0.74-3.72-0.56c-0.55-0.88-0.48-1.97,0.1-2.76c8.47-11.48,22.77-17.52,37.3-17.31
				c15.03,0.89,31.39,8.12,37,23.17c5.26,16.11-7.53,30.25-19.27,39.25c-16.52,12.79-37.49,19.47-58.35,18.89
				c-8.8-0.35-18.1-1.49-26.49-5.53c-2.15-1.06-4.57-2.7-6.15-4.78c-10.13-13.59-16.26-28.99-23.21-44.12
				c-4.3-11.01-12.16-19.57-21.82-26.36c-4.76-3.39-10.34-6.67-15.58-8.93C567.07,673.92,571.65,662.61,579.53,665.5L579.53,665.5z"
				/>
		</g>
		<g>
			<path class="st5" d="M699.98,692.73c-3.92-18.17-11.33-35.85-21.45-51.48c-5.23-8.25-12.14-16.28-16.46-25.66
				c-3.17-6.65-4.22-14.15-4.61-21.38c0,0-0.8-9.72-0.8-9.72c-1.46-12.32-2-25.55-4.76-37.35c-0.57-1.6,0.3-3.41,1.97-3.83
				c3.89-0.96,7.25,7.57,8.57,10.13c6.69,15.28,6.6,32.46,9.41,48.54c2.63,11.92,12.05,20.86,18.63,31.46
				c3.75,5.7,7.23,11.76,10.12,17.97c4.43,9.32,7.72,19.09,10.19,29.09c0.81,3.4,1.43,6.61,1.95,10.38c0.48,3.52-1.98,6.77-5.5,7.25
				C703.72,698.62,700.51,696.18,699.98,692.73L699.98,692.73z"/>
		</g>
		<g>
			<path class="st5" d="M727.47,602.08c-6.1,0-12.46-2.3-17.19-7.82c-4.9-5.73-17.73-16.83-19.33-18.2
				c-13.57-10.07-30.36-13.84-30.52-13.88c-3.47-0.76-5.67-4.19-4.91-7.66c0.76-3.47,4.17-5.66,7.65-4.92
				c0.8,0.17,19.77,4.39,35.67,16.28c0.11,0.08,0.22,0.17,0.33,0.27c0.61,0.52,15.04,12.91,20.89,19.74
				c3.44,4.02,9.31,4.1,13.01,1.85c3.66-2.23,2.52-5.04,2.08-6.1c0,0,0,0,0,0c-1.34-3.29,0.23-7.05,3.53-8.39
				c2.5-1.03,5.28-0.35,7.05,1.48c1.18,0.27,3.69,0.51,9.07,0.41c0.71-0.01,1.28-0.02,1.63-0.01c7.25,0.15,12.8-1.93,15.99-5.96
				c3.1-3.93,4.04-9.86,2.5-15.86c-4.55-17.76-25.19-37.86-56.62-55.15c-27.62-15.19-56.56-24.27-68.59-24.27
				c-3.56,0-6.44-2.88-6.44-6.44c0-3.55,2.88-6.44,6.44-6.44c31.46,0,125.21,40.47,137.68,89.1c2.57,10.02,0.8,19.87-4.87,27.04
				c-4.02,5.09-11.94,11.11-26.31,10.85c-0.26-0.01-0.67,0-1.19,0.01c-2.41,0.04-4.77,0.04-6.98-0.09
				c-1.07,4.32-3.9,8.14-8.27,10.81C736.3,600.84,731.95,602.08,727.47,602.08z M747.05,576.74c0,0.01,0.01,0.02,0.01,0.04l0,0
				C747.06,576.76,747.05,576.75,747.05,576.74z"/>
		</g>
	</g>
	<g>
		<path class="st5" d="M661.55,574.36c-13.7,4.68-28.03,8.15-42.36,10.2c-8.64,1.36-20.27,3.35-28.85,3.99
			c-23.89,2.67-49.2,3.46-73.09,0.62c-6.82-0.51-15.12-2.31-21.89-3.45c-4.15-1.16-10.27-2.64-14.36-3.87
			c-2.14-0.78-8.45-2.98-10.56-3.75c-2.6-0.99-7.72-3.49-10.29-4.6c-8.86-5.05-18.86-9.66-22.8-20.08
			c-0.45-1.25,0.19-2.62,1.44-3.08c0.84-0.32,1.65-0.07,2.37,0.35c9.96,5.2,19.07,12.55,29.83,16.45c1.71,0.85,4.62,1.82,6.49,2.42
			c6.11,2.29,13.83,4.06,20.15,5.61c3.46,0.6,10.39,1.81,13.85,2.41c6.71,0.86,14.31,1.64,21.07,2.08
			c13.76,0.73,28.89,0.63,42.59-0.07c13.27-0.99,29.44-2.41,42.59-4.51c14.33-1.77,28.27-4.99,42.83-5.69
			C663.36,569.23,664.37,573.39,661.55,574.36L661.55,574.36z"/>
	</g>
	<g>
		<path class="st5" d="M443.67,579.57c7.48,4.87,15.84,8.24,24.17,11.41c8.36,2.92,17.58,5.75,26.29,7.33
			c33.72,6.72,69.3,6.49,103.58,3.83c11.6-0.96,23.17-2.31,34.77-3.51c9.25-1.24,18.54-2.33,27.89-3.24
			c1.9-0.26,3.66,1.11,3.84,3.03c0.17,1.71-0.97,3.24-2.59,3.62c-9.2,2.17-18.45,4.17-27.73,6.01c-10.45,1.99-21.1,3.15-31.64,4.64
			c0,0-3.55,0.29-3.55,0.29c-16.21,1.44-33.63,2.68-49.86,2.29c-23.75-0.37-48.32-3.01-71-10.25c-9.32-2.79-18.38-6.71-26.53-12.12
			c-4.09-2.83-7.92-5.73-11.24-10.03c-0.82-1.07-0.63-2.61,0.44-3.43C441.49,578.7,442.77,578.84,443.67,579.57L443.67,579.57z"/>
	</g>
	<g>
		<g>
			<path class="st13" d="M529.1,629.76c-3.03,0-5.97-0.67-8.3-2.25l-0.93-0.63l-4.47-7.15c-0.45-0.11-0.92-0.08-1.37,0.09
				l-12.28,4.76c-6.36,2.47-15.21-0.49-19.75-4.66c-3.46-3.17-4.79-7.2-3.67-11.07l0.29-0.99l9.72-12.43
				c-0.02-0.48-0.19-0.96-0.51-1.34l-8.33-10.21c-3.15-3.86-3.82-9.08-1.75-13.62c2.07-4.54,6.45-7.45,11.44-7.6l13.16-0.4
				c0.42-0.01,0.81-0.14,1.16-0.36l0.87-10.59l0.73-1.13c3.41-5.29,10.95-6.43,16.36-5.82c6.54,0.75,11.42,3.9,13.04,8.43l0,0
				l4.45,12.39c0.25,0.71,0.84,1.24,1.56,1.43l12.74,3.36c4.82,1.27,8.43,5.1,9.42,9.99c0.99,4.89-0.84,9.82-4.78,12.87l-10.41,8.06
				c-0.59,0.46-0.92,1.18-0.88,1.93l0.74,13.15c0.24,4.26-2.29,8.21-6.93,10.83C537.3,628.58,533.12,629.76,529.1,629.76z
				 M527.54,618.89c0.96,0.21,2.68,0.27,4.78-0.29c2.58-0.68,3.95-1.8,4.3-2.27l-0.72-12.89c-0.24-4.28,1.64-8.39,5.02-11.01
				l10.41-8.06c0.97-0.75,0.94-1.74,0.84-2.26c-0.1-0.52-0.46-1.43-1.65-1.75L537.79,577c-4.14-1.09-7.47-4.15-8.92-8.18
				l-4.42-12.31c-0.39-0.48-2.27-1.42-5.09-1.56c-2.06-0.11-3.68,0.27-4.56,0.66l-0.84,10.29l-0.73,1.13
				c-2.32,3.6-6.26,5.82-10.54,5.95l-13.16,0.4c-1.23,0.04-1.78,0.85-2,1.33c-0.22,0.48-0.47,1.43,0.31,2.39l8.33,10.21
				c2.71,3.32,3.61,7.75,2.41,11.86l-0.29,0.99l-9.18,11.74c1.63,1.67,6.66,3.49,8.79,2.67l12.28-4.76
				c3.99-1.55,8.49-1.03,12.02,1.38l0.93,0.63L527.54,618.89z M524.42,556.43L524.42,556.43
				C524.42,556.43,524.42,556.43,524.42,556.43L524.42,556.43z"/>
		</g>
		<g>
			<path class="st14" d="M520.28,554.67l4.45,12.4c0.85,2.37,2.81,4.17,5.24,4.81l12.73,3.36c6.12,1.62,7.73,9.55,2.73,13.43
				l-10.41,8.06c-1.99,1.54-3.09,3.96-2.95,6.47l0.74,13.15c0.35,6.32-6.7,10.31-11.93,6.74l-10.88-7.41
				c-2.08-1.42-4.72-1.72-7.07-0.81l-12.28,4.76c-5.9,2.29-11.87-3.18-10.1-9.26l3.69-12.64c0.7-2.41,0.18-5.02-1.41-6.97
				l-8.32-10.2c-4-4.91-0.64-12.28,5.69-12.47l13.16-0.4c2.51-0.08,4.83-1.39,6.19-3.5l7.13-11.07
				C510.09,547.79,518.14,548.71,520.28,554.67z"/>
		</g>
		<g>
			<path class="st13" d="M528.12,629.78c-2.55,0-5.1-0.76-7.31-2.27l-10.89-7.41c-0.62-0.42-1.41-0.52-2.11-0.24l-12.28,4.76
				c-4.65,1.8-9.82,0.83-13.49-2.54c-3.67-3.37-5.09-8.44-3.69-13.22l3.69-12.64c0.21-0.72,0.05-1.5-0.42-2.08l-8.32-10.2
				c-3.15-3.86-3.83-9.08-1.76-13.62c2.07-4.54,6.45-7.45,11.44-7.6l13.16-0.4c0.75-0.02,1.44-0.41,1.85-1.04l7.13-11.07
				c2.7-4.19,7.46-6.44,12.41-5.88c4.95,0.57,9.08,3.83,10.76,8.53v0l4.45,12.4c0.25,0.71,0.84,1.24,1.56,1.43l12.74,3.36
				c4.82,1.27,8.43,5.1,9.42,9.99c0.99,4.89-0.84,9.82-4.78,12.87l-10.41,8.06c-0.59,0.46-0.92,1.18-0.88,1.93l0.74,13.15
				c0.28,4.98-2.25,9.6-6.59,12.05C532.52,629.21,530.32,629.78,528.12,629.78z M508.64,608.97c2.58,0,5.13,0.77,7.32,2.26
				l10.88,7.41c1.02,0.69,1.94,0.36,2.4,0.1c0.46-0.26,1.22-0.88,1.15-2.11l-0.74-13.15c-0.24-4.27,1.64-8.39,5.02-11.01l10.42-8.06
				c0.97-0.75,0.94-1.74,0.84-2.25c-0.1-0.52-0.46-1.43-1.65-1.75l-12.73-3.36c-4.14-1.09-7.48-4.15-8.92-8.18l-4.45-12.39
				c-0.42-1.16-1.36-1.44-1.89-1.49c-0.52-0.06-1.51-0.01-2.17,1.03L507,567.07c-2.32,3.6-6.26,5.83-10.54,5.96l-13.16,0.4
				c-1.23,0.04-1.78,0.85-2,1.33c-0.22,0.48-0.47,1.43,0.31,2.39l8.32,10.21c2.71,3.32,3.61,7.75,2.41,11.86l-3.69,12.64
				c-0.34,1.18,0.26,1.96,0.65,2.32c0.39,0.36,1.22,0.89,2.36,0.45l12.28-4.76C505.46,609.26,507.05,608.97,508.64,608.97z"/>
		</g>
	</g>
	<g>
		<circle class="st4" cx="551.61" cy="365.06" r="138.9"/>
	</g>
	<g>
		<path class="st5" d="M551.73,510.46c-15.95,0-31.96-2.66-47.49-8.01c-36.7-12.65-66.28-38.84-83.28-73.74
			c-17-34.9-19.4-74.33-6.75-111.03c12.65-36.7,38.84-66.28,73.74-83.28c34.9-17,74.32-19.4,111.03-6.75
			c75.76,26.12,116.15,109,90.03,184.76l0,0c-12.65,36.7-38.84,66.28-73.74,83.28C595.14,505.51,573.49,510.46,551.73,510.46z
			 M551.5,232.53c-19.83,0-39.56,4.51-57.91,13.45c-31.81,15.5-55.67,42.45-67.2,75.9c-11.53,33.45-9.35,69.39,6.15,101.19
			s42.45,55.67,75.9,67.2c33.45,11.53,69.39,9.35,101.2-6.15c31.81-15.5,55.67-42.45,67.21-75.9l6.08,2.1l-6.08-2.1
			c23.8-69.05-13.01-144.6-82.06-168.4C580.63,234.95,566.04,232.53,551.5,232.53z"/>
	</g>
	<g>
		<path class="st11" d="M486.6,242.32c0,0,18.16-27.58,62.73-23.37c49.57,4.68,131.84,30.98,118.6,169.53l-35.08,12.15L486.6,242.32
			z"/>
	</g>
	<g>
		<path class="st5" d="M674.32,389.32l-12.76-1.67c6.97-53.24-1.8-94.67-26.07-123.12c-29.75-34.89-73.6-38.78-86.33-39.14
			c-40.43-1.19-56.71,19.87-57.38,20.76l-10.37-7.62c0.81-1.12,20.56-27.35,68.12-26.01c14.07,0.4,62.57,4.73,95.76,43.66
			C672.01,287.52,681.78,332.31,674.32,389.32z"/>
	</g>
	<g>
		<circle class="st15" cx="527.93" cy="348.76" r="118.65"/>
	</g>
	<g>
		<path class="st5" d="M526.15,479.38c-13.73,0-27.51-2.29-40.87-6.89c-65.21-22.48-99.97-93.82-77.49-159.03
			c10.89-31.59,33.43-57.05,63.47-71.68c30.04-14.64,63.98-16.7,95.56-5.81c65.21,22.48,99.97,93.82,77.49,159.03
			c-10.89,31.59-33.43,57.05-63.46,71.68C563.51,475.12,544.88,479.38,526.15,479.38z M525.96,241.95c-16.8,0-33.51,3.82-49.06,11.4
			c-26.95,13.13-47.17,35.97-56.94,64.31c-20.17,58.5,11.02,122.5,69.52,142.67c28.34,9.77,58.78,7.92,85.73-5.21
			c26.95-13.13,47.17-35.97,56.94-64.3c20.17-58.5-11.02-122.5-69.52-142.67C550.64,244,538.27,241.95,525.96,241.95z"/>
	</g>
	<g>
		
			<ellipse transform="matrix(0.5368 -0.8437 0.8437 0.5368 -54.0033 751.3107)" class="st11" cx="657.29" cy="424.84" rx="43.36" ry="29.96"/>
	</g>
	<g>
		
			<ellipse transform="matrix(0.5368 -0.8437 0.8437 0.5368 -56.2819 757.5083)" class="st2" cx="661.8" cy="430.02" rx="25.62" ry="14.58"/>
	</g>
	<g>
		<path class="st5" d="M645.62,473.2c-5.59,0-10.96-1.44-15.71-4.46c-17.22-10.96-18.97-37.99-3.98-61.55
			c6.91-10.86,16.43-19.25,26.79-23.63c11.18-4.72,22.06-4.31,30.65,1.16c17.22,10.96,18.97,37.99,3.98,61.55
			C676.5,463.32,660.28,473.2,645.62,473.2z M667.77,393.2c-3.13,0-6.52,0.74-10.04,2.23c-7.98,3.37-15.41,10-20.93,18.68
			c-10.74,16.89-10.73,36.93,0.03,43.78c10.76,6.85,28.92-1.63,39.67-18.52c10.74-16.89,10.73-36.93-0.03-43.78
			C673.96,393.99,671.01,393.2,667.77,393.2z"/>
	</g>
	<g>
		<path class="st11" d="M452.83,292.36c12.72-15.44,30.39-26.75,49.75-31.71c11.31-2.7,23.45-2.76,34.71-0.62
			c3.18,0.52,5.34,3.51,4.82,6.69c-0.5,3.12-3.36,5.16-6.39,4.89c-6.57-0.09-13.08,0.03-19.27,1.7c-6.08,1.33-12.23,3.83-17.59,6.95
			c-10.65,6.13-20.02,14.94-26.52,25.37c-1.94,6.42-8.73,10.06-15.15,8.11c-7.95-2.24-11.25-12.37-6.24-18.88
			C450.95,294.86,452.83,292.36,452.83,292.36L452.83,292.36z"/>
	</g>
	<g>
		<circle class="st11" cx="443.36" cy="329.15" r="10.4"/>
	</g>
	<g>
		<circle class="st4" cx="580.82" cy="404.7" r="19.69"/>
	</g>
	<g>
		<circle class="st11" cx="491.94" cy="579.89" r="3.74"/>
	</g>
	<g>
		<path class="st11" d="M515.01,569.44c-2.03,4.11-3.86,9.44-8.32,11.7c-2.65,1.26-6.95,3.88-8.57-0.02
			c-0.62-1.68,0.24-3.55,1.93-4.17c1.79-0.41,3.73-0.47,5.48-1c3.08-1.6,5.24-4.89,7.51-7.66
			C513.81,567.19,515.58,568.24,515.01,569.44L515.01,569.44z"/>
	</g>
	<g>
		<g>
			<g>
				<path class="st14" d="M287.58,548.46l1.95,5.42c0.37,1.04,1.23,1.82,2.29,2.1l5.57,1.47c2.68,0.71,3.39,4.18,1.19,5.88
					l-4.56,3.53c-0.87,0.67-1.35,1.73-1.29,2.83l0.32,5.75c0.16,2.77-2.93,4.51-5.22,2.95l-4.76-3.24
					c-0.91-0.62-2.07-0.75-3.09-0.35l-5.37,2.08c-2.58,1-5.2-1.39-4.42-4.05l1.61-5.53c0.31-1.06,0.08-2.2-0.62-3.05l-3.64-4.47
					c-1.75-2.15-0.28-5.37,2.49-5.46l5.76-0.18c1.1-0.03,2.11-0.61,2.71-1.53l3.12-4.85C283.12,545.45,286.64,545.85,287.58,548.46z
					"/>
			</g>
			<g>
				<path class="st13" d="M291.01,581.33c-1.12,0-2.23-0.33-3.2-0.99l-4.76-3.24c-0.27-0.19-0.62-0.23-0.92-0.11l-5.37,2.08
					c-2.03,0.79-4.3,0.36-5.91-1.11c-1.61-1.47-2.23-3.69-1.62-5.79l1.61-5.53c0.09-0.32,0.02-0.66-0.19-0.91l-3.64-4.47
					c-1.38-1.69-1.67-3.97-0.77-5.96s2.82-3.26,5.01-3.33l5.76-0.18c0.33-0.01,0.63-0.18,0.81-0.46l3.12-4.85
					c1.18-1.83,3.26-2.82,5.43-2.57c2.17,0.25,3.97,1.68,4.71,3.73v0l1.95,5.43c0.11,0.31,0.37,0.54,0.68,0.63l5.57,1.47
					c2.11,0.56,3.69,2.23,4.12,4.37s-0.37,4.3-2.09,5.63l-4.56,3.53c-0.26,0.2-0.4,0.52-0.39,0.84l0.32,5.75
					c0.12,2.18-0.98,4.2-2.88,5.27C292.94,581.08,291.97,581.33,291.01,581.33z M282.49,572.23c1.13,0,2.25,0.34,3.2,0.99l4.76,3.24
					c0.45,0.3,0.85,0.16,1.05,0.04c0.2-0.11,0.54-0.39,0.51-0.92l-0.32-5.75c-0.1-1.87,0.72-3.67,2.2-4.82l4.56-3.53
					c0.43-0.33,0.41-0.76,0.37-0.99c-0.05-0.23-0.2-0.63-0.72-0.77l-5.57-1.47c-1.81-0.48-3.27-1.82-3.9-3.58l-1.95-5.42
					c-0.18-0.51-0.6-0.63-0.83-0.65c-0.23-0.02-0.66,0-0.95,0.45l-3.12,4.85c-1.01,1.58-2.74,2.55-4.61,2.61l-5.76,0.18
					c-0.54,0.02-0.78,0.37-0.88,0.58c-0.1,0.21-0.21,0.63,0.13,1.04l3.64,4.47c1.18,1.45,1.58,3.39,1.05,5.19l-1.61,5.53
					c-0.15,0.52,0.11,0.86,0.28,1.01c0.17,0.16,0.53,0.39,1.03,0.19l5.37-2.08C281.09,572.35,281.79,572.23,282.49,572.23z"/>
			</g>
		</g>
		<g>
			<circle class="st11" cx="275.18" cy="559.5" r="1.64"/>
		</g>
		<g>
			<path class="st11" d="M285.28,554.92c-0.89,1.8-1.69,4.13-3.64,5.12c-1.16,0.55-3.04,1.7-3.75-0.01
				c-0.27-0.74,0.11-1.55,0.84-1.82c0.78-0.18,1.63-0.2,2.4-0.44c1.35-0.7,2.29-2.14,3.29-3.35
				C284.75,553.94,285.53,554.4,285.28,554.92L285.28,554.92z"/>
		</g>
	</g>
	<g>
		<g>
			<g>
				<path class="st14" d="M799.72,667.34l1.57,4.38c0.3,0.84,0.99,1.47,1.85,1.7l4.5,1.19c2.16,0.57,2.73,3.38,0.96,4.75l-3.68,2.85
					c-0.7,0.54-1.09,1.4-1.04,2.29l0.26,4.65c0.13,2.23-2.37,3.64-4.22,2.38l-3.85-2.62c-0.73-0.5-1.67-0.61-2.5-0.29l-4.34,1.68
					c-2.09,0.81-4.2-1.12-3.57-3.27l1.3-4.47c0.25-0.85,0.06-1.77-0.5-2.46l-2.94-3.61c-1.41-1.73-0.23-4.34,2.01-4.41l4.65-0.14
					c0.89-0.03,1.71-0.49,2.19-1.24l2.52-3.91C796.12,664.91,798.96,665.23,799.72,667.34z"/>
			</g>
			<g>
				<path class="st13" d="M802.49,693.88c-0.9,0-1.8-0.27-2.58-0.8l-3.85-2.62c-0.22-0.15-0.5-0.18-0.74-0.09l-4.34,1.68
					c-1.64,0.64-3.47,0.29-4.77-0.9c-1.3-1.19-1.8-2.98-1.3-4.67l1.3-4.47c0.07-0.25,0.02-0.53-0.15-0.73l-2.94-3.61
					c-1.11-1.36-1.35-3.21-0.62-4.81c0.73-1.6,2.28-2.63,4.04-2.69l4.65-0.14c0.26-0.01,0.51-0.15,0.65-0.37l2.52-3.91
					c0.95-1.48,2.64-2.28,4.38-2.08c1.75,0.2,3.21,1.35,3.8,3.01v0l1.57,4.38c0.09,0.25,0.3,0.44,0.55,0.51l4.5,1.19
					c1.7,0.45,2.98,1.8,3.33,3.53c0.35,1.73-0.3,3.47-1.69,4.55l-3.68,2.85c-0.21,0.16-0.33,0.42-0.31,0.68l0.26,4.65
					c0.1,1.76-0.79,3.39-2.33,4.26C804.04,693.68,803.26,693.88,802.49,693.88z M795.6,686.52c0.91,0,1.81,0.27,2.59,0.8l3.85,2.62
					c0.36,0.25,0.69,0.13,0.85,0.04c0.16-0.09,0.43-0.31,0.41-0.75l-0.26-4.65c-0.08-1.51,0.58-2.96,1.77-3.89l3.68-2.85
					c0.34-0.27,0.33-0.61,0.3-0.8c-0.04-0.18-0.16-0.51-0.58-0.62l-4.5-1.19c-1.46-0.39-2.64-1.47-3.15-2.89l-1.57-4.38
					c-0.15-0.41-0.48-0.51-0.67-0.53c-0.18-0.02-0.53,0-0.77,0.36l-2.52,3.91c-0.82,1.27-2.21,2.06-3.72,2.1l-4.65,0.14
					c-0.44,0.01-0.63,0.3-0.71,0.47c-0.08,0.17-0.17,0.51,0.11,0.84l2.94,3.61c0.96,1.17,1.27,2.74,0.85,4.19l-1.3,4.47
					c-0.12,0.42,0.09,0.69,0.23,0.82c0.14,0.13,0.43,0.32,0.84,0.16l4.34-1.68C794.48,686.63,795.04,686.52,795.6,686.52z"/>
			</g>
		</g>
		<g>
			<circle class="st11" cx="789.7" cy="676.25" r="1.32"/>
		</g>
		<g>
			<path class="st11" d="M797.85,672.56c-0.72,1.45-1.36,3.34-2.94,4.13c-0.94,0.45-2.46,1.37-3.03-0.01
				c-0.22-0.59,0.09-1.25,0.68-1.47c0.63-0.15,1.32-0.16,1.94-0.35c1.09-0.56,1.85-1.73,2.65-2.71
				C797.43,671.76,798.06,672.14,797.85,672.56L797.85,672.56z"/>
		</g>
	</g>
</g>
<g>
	<path class="st15" d="M150.51,113.09c0,10.62-7.82,17.25-20.29,17.25h-9.31l-2.27,11.52h-9.73l8.36-41.78h16.89
		C144.6,100.08,150.51,104.91,150.51,113.09z M140.72,113.93c0-4.06-2.86-5.97-7.76-5.97h-7.58l-2.92,14.5h8.18
		C137.02,122.46,140.72,119.48,140.72,113.93z"/>
	<path class="st15" d="M160.83,97.57h9.31l-8.83,44.28H152L160.83,97.57z"/>
	<path class="st15" d="M204.28,128.31h-24.59c0.3,4.36,2.98,6.57,8.3,6.57c3.28,0,6.39-1.07,8.59-2.98l3.88,6.15
		c-3.7,2.98-8.53,4.3-13.43,4.3c-10.03,0-16.41-5.67-16.41-14.38c0-10.74,7.76-18.68,18.92-18.68c9.37,0,15.28,5.55,15.28,14.14
		C204.81,125.15,204.57,126.82,204.28,128.31z M180.34,122.88h15.94c0-4.24-2.86-6.62-7.16-6.62
		C184.64,116.25,181.6,118.88,180.34,122.88z"/>
	<path class="st15" d="M246.41,109.75l-6.39,32.11h-8.83l0.6-3.16c-2.57,2.33-5.91,3.64-9.85,3.64c-7.46,0-13.85-5.25-13.85-14.38
		c0-10.8,7.82-18.68,17.72-18.68c4.66,0,8.36,1.49,10.44,4.83l0.84-4.36H246.41z M234.23,124.07c0-4.36-2.69-7.1-7.34-7.1
		c-5.49,0-9.43,4.3-9.43,10.56c0,4.36,2.69,7.1,7.34,7.1C230.29,134.63,234.23,130.34,234.23,124.07z"/>
	<path class="st15" d="M246.58,138.99l3.58-6.74c2.75,1.85,7.1,3.04,11.16,3.04c4.36,0,6.27-1.19,6.27-3.1
		c0-4.54-17.01-0.78-17.01-11.64c0-7.22,6.74-11.28,16.11-11.28c4.48,0,8.95,1.01,11.88,2.69l-3.34,6.8
		c-2.98-1.85-6.51-2.45-9.49-2.45c-4.3,0-6.21,1.43-6.21,3.16c0,4.71,16.95,0.95,16.95,11.64c0,7.34-6.92,11.22-16.17,11.22
		C254.63,142.33,249.26,140.9,246.58,138.99z"/>
	<path class="st15" d="M314.61,128.31h-24.59c0.3,4.36,2.99,6.57,8.3,6.57c3.28,0,6.39-1.07,8.59-2.98l3.88,6.15
		c-3.7,2.98-8.53,4.3-13.43,4.3c-10.03,0-16.41-5.67-16.41-14.38c0-10.74,7.76-18.68,18.92-18.68c9.37,0,15.28,5.55,15.28,14.14
		C315.15,125.15,314.91,126.82,314.61,128.31z M290.68,122.88h15.94c0-4.24-2.86-6.62-7.16-6.62
		C294.97,116.25,291.93,118.88,290.68,122.88z"/>
	<path class="st15" d="M89.61,196.04c0-14.26,10.44-25.07,25.96-25.07c7.4,0,13.43,2.63,16.41,7.4L125,184.1
		c-2.15-3.16-5.49-4.89-10.09-4.89c-9.43,0-15.52,7.22-15.52,16.23c0,6.33,4.18,10.5,11.7,10.5c4.24,0,8-1.49,11.1-4.83l5.73,5.85
		c-4.42,5.13-10.5,7.22-17.67,7.22C97.49,214.18,89.61,206.78,89.61,196.04z"/>
	<path class="st15" d="M130.9,199.56c0-10.68,8.12-18.68,19.4-18.68c9.85,0,16.17,5.67,16.17,14.38c0,10.68-8.06,18.68-19.4,18.68
		C137.29,213.94,130.9,208.21,130.9,199.56z M157.04,195.68c0-4.36-2.63-7.1-7.28-7.1c-5.49,0-9.43,4.3-9.43,10.56
		c0,4.36,2.68,7.1,7.34,7.1C153.1,206.24,157.04,201.95,157.04,195.68z"/>
	<path class="st15" d="M206.1,191.8c0,1.19-0.12,2.51-0.42,3.88l-3.58,17.79h-9.31l3.46-17.19c0.18-0.78,0.24-1.55,0.24-2.21
		c0-3.28-1.79-5.13-5.49-5.13c-4.71,0-8,2.63-9.13,8.24l-3.22,16.29h-9.31l6.39-32.11h8.83l-0.72,3.46
		c2.92-2.69,6.62-3.94,10.56-3.94C201.44,180.88,206.1,184.7,206.1,191.8z"/>
	<path class="st15" d="M223.22,202.12c-0.12,0.48-0.12,0.9-0.12,1.31c0,1.97,1.07,3.1,3.4,3.1c1.25,0,2.57-0.42,3.76-1.13l1.37,6.62
		c-2.33,1.43-5.19,1.91-8,1.91c-5.97,0-10.03-3.34-10.03-8.95c0-0.9,0.12-1.85,0.3-2.81l2.57-12.95h-4.95l1.43-7.16h4.95l1.55-7.82
		h9.31l-1.55,7.82h8l-1.43,7.16h-8L223.22,202.12z"/>
	<path class="st15" d="M274.48,181.36l-6.39,32.11h-8.83l0.6-3.16c-2.57,2.33-5.91,3.64-9.85,3.64c-7.46,0-13.85-5.25-13.85-14.38
		c0-10.8,7.82-18.68,17.72-18.68c4.66,0,8.36,1.49,10.44,4.83l0.84-4.36H274.48z M262.3,195.68c0-4.36-2.69-7.1-7.34-7.1
		c-5.49,0-9.43,4.3-9.43,10.56c0,4.36,2.68,7.1,7.34,7.1C258.36,206.24,262.3,201.95,262.3,195.68z"/>
	<path class="st15" d="M277.28,199.56c0-10.68,8.12-18.68,19.57-18.68c6.86,0,12,2.92,14.44,8.12l-7.88,3.94
		c-1.43-2.98-3.88-4.36-7.16-4.36c-5.49,0-9.55,4.3-9.55,10.5c0,4.36,2.68,7.16,7.46,7.16c3.22,0,5.97-1.31,7.88-4.3l6.86,4.3
		c-3.1,4.84-8.71,7.7-15.28,7.7C283.66,213.94,277.28,208.21,277.28,199.56z"/>
	<path class="st15" d="M325.08,202.12c-0.12,0.48-0.12,0.9-0.12,1.31c0,1.97,1.07,3.1,3.4,3.1c1.25,0,2.57-0.42,3.76-1.13l1.37,6.62
		c-2.33,1.43-5.19,1.91-8,1.91c-5.97,0-10.03-3.34-10.03-8.95c0-0.9,0.12-1.85,0.3-2.81l2.57-12.95h-4.95l1.43-7.16h4.95l1.55-7.82
		h9.31l-1.55,7.82h8l-1.43,7.16h-8L325.08,202.12z"/>
	<path class="st15" d="M177.15,271.17c0-1.43,0.18-2.92,0.48-4.48l4.66-23.4h9.73l-4.66,23.22c-0.24,1.31-0.36,2.45-0.36,3.52
		c0,5.07,2.86,7.52,8.06,7.52c5.85,0,9.25-3.22,10.86-11.04l4.66-23.22h9.49l-4.71,23.81c-2.51,12.35-9.61,18.68-21.37,18.68
		C183.47,285.79,177.15,280.18,177.15,271.17z"/>
	<path class="st15" d="M218.68,282.21l3.58-6.74c2.75,1.85,7.1,3.04,11.16,3.04c4.36,0,6.27-1.19,6.27-3.1
		c0-4.54-17.01-0.78-17.01-11.64c0-7.22,6.74-11.28,16.11-11.28c4.48,0,8.95,1.01,11.88,2.69l-3.34,6.8
		c-2.98-1.85-6.51-2.45-9.49-2.45c-4.3,0-6.21,1.43-6.21,3.16c0,4.71,16.95,0.95,16.95,11.64c0,7.34-6.92,11.22-16.17,11.22
		C226.74,285.55,221.37,284.12,218.68,282.21z"/>
</g>
</svg>
