<svg width="20" height="22" viewBox="0 0 20 22" fill="none" xmlns="http://www.w3.org/2000/svg">
<path fill-rule="evenodd" clip-rule="evenodd" d="M10.4028 21.4711C12.1917 20.5629 19.3337 16.5085 19.3337 9.66668C19.3337 4.51202 15.155 0.333344 10.0003 0.333344C4.84567 0.333344 0.666992 4.51202 0.666992 9.66668C0.666992 16.5085 7.80891 20.5629 9.59781 21.4711C9.85181 21.6001 10.1488 21.6001 10.4028 21.4711ZM10.0003 13.6667C12.2095 13.6667 14.0003 11.8758 14.0003 9.66668C14.0003 7.45754 12.2095 5.66668 10.0003 5.66668C7.79119 5.66668 6.00033 7.45754 6.00033 9.66668C6.00033 11.8758 7.79119 13.6667 10.0003 13.6667Z" fill="#05B4EA"/>
</svg>
