<svg width="21" height="20" viewBox="0 0 21 20" fill="none" xmlns="http://www.w3.org/2000/svg">
<path d="M2.72746 1.0876L3.46352 0.351537C3.93224 -0.117179 4.69218 -0.117179 5.16089 0.351536L8.26441 3.45505C8.73312 3.92377 8.73312 4.68371 8.26441 5.15243L6.11312 7.30372C5.75439 7.66244 5.66546 8.21047 5.89234 8.66422C7.20389 11.2873 9.33084 13.4143 11.9539 14.7258C12.4077 14.9527 12.9557 14.8638 13.3145 14.505L15.4657 12.3538C15.9345 11.885 16.6944 11.885 17.1631 12.3538L20.2666 15.4573C20.7353 15.926 20.7353 16.6859 20.2666 17.1546L19.5306 17.8907C16.9965 20.4248 12.9847 20.7099 10.1177 18.5597L8.6673 17.4719C6.57467 15.9024 4.71574 14.0435 3.14628 11.9509L2.05851 10.5005C-0.0917398 7.63351 0.193368 3.62169 2.72746 1.0876Z" fill="#05B4EA"/>
</svg>
