<svg width="23" height="17" viewBox="0 0 23 17" fill="none" xmlns="http://www.w3.org/2000/svg">
<path fill-rule="evenodd" clip-rule="evenodd" d="M1.69211 1.06697C0.618164 2.13394 0.618164 3.8512 0.618164 7.28571V9.71429C0.618164 13.1488 0.618164 14.8661 1.69211 15.933C2.76605 17 4.49453 17 7.9515 17H15.2848C18.7418 17 20.4703 17 21.5442 15.933C22.6182 14.8661 22.6182 13.1488 22.6182 9.71429V7.28571C22.6182 3.8512 22.6182 2.13394 21.5442 1.06697C20.4703 0 18.7418 0 15.2848 0H7.9515C4.49453 0 2.76605 0 1.69211 1.06697ZM4.9628 3.8468C4.40115 3.4748 3.64231 3.62558 3.26788 4.18358C2.89345 4.74158 3.04522 5.49549 3.60686 5.86749L10.2622 10.2756C11.0833 10.8194 12.153 10.8194 12.9741 10.2756L19.6295 5.86749C20.1911 5.49549 20.3429 4.74158 19.9684 4.18358C19.594 3.62558 18.8352 3.4748 18.2735 3.8468L11.6182 8.2549L4.9628 3.8468Z" fill="#05B4EA"/>
</svg>
