<svg width="42" height="42" viewBox="0 0 42 42" fill="none" xmlns="http://www.w3.org/2000/svg">
<path d="M0 22.186C0 21.3164 0 20.4457 0 19.576C0.0621177 19.066 0.116607 18.5538 0.189623 18.046C0.781376 13.9169 2.41714 10.253 5.19173 7.13739C9.22939 2.60503 14.3056 0.206446 20.3779 0.0113772C24.3273 -0.115036 28.0532 0.810185 31.4218 2.87748C37.9191 6.86277 41.4118 12.6985 41.7453 20.328C41.9197 24.3176 40.9269 28.0675 38.8497 31.4851C35.5444 36.9252 30.7483 40.2632 24.4798 41.4445C23.7224 41.5872 22.952 41.6592 22.188 41.7649H19.578C19.0691 41.7017 18.5579 41.6472 18.0501 41.5742C13.8948 40.9791 10.2222 39.314 7.08251 36.5263C3.4568 33.305 1.19222 29.3001 0.324756 24.5203C0.185263 23.7477 0.106799 22.9641 0 22.186ZM22.6784 27.6687C22.6784 25.8063 22.6926 23.9449 22.6675 22.0825C22.6621 21.6728 22.7852 21.5932 23.1645 21.6052C24.033 21.6346 24.9038 21.6052 25.7734 21.6194C26.0197 21.6237 26.0916 21.5474 26.1134 21.3011C26.2235 20.0969 26.3477 18.8949 26.4905 17.694C26.5275 17.3867 26.4306 17.3268 26.1505 17.3311C25.1174 17.3442 24.0842 17.3246 23.0522 17.3431C22.7405 17.3485 22.6621 17.2505 22.6719 16.9497C22.6948 16.2577 22.6752 15.5635 22.6806 14.8704C22.6871 14.0247 23.0555 13.6608 23.9066 13.6553C24.6542 13.651 25.4018 13.6477 26.1494 13.6575C26.3782 13.6608 26.4545 13.5834 26.4523 13.3535C26.4436 12.171 26.4436 10.9886 26.4523 9.80624C26.4534 9.58502 26.3946 9.49021 26.157 9.49021C24.9201 9.49566 23.6821 9.44444 22.4474 9.49457C19.6041 9.61117 17.9673 11.1783 17.6807 14.0062C17.5826 14.9685 17.6371 15.9351 17.6491 16.8985C17.6534 17.2723 17.5346 17.3594 17.187 17.342C16.6443 17.3148 16.0994 17.342 15.5567 17.3311C15.3355 17.3268 15.2461 17.3867 15.2483 17.6264C15.2592 18.8633 15.257 20.1002 15.2483 21.3371C15.2472 21.5474 15.3038 21.6226 15.5229 21.6172C16.0667 21.603 16.6116 21.639 17.1532 21.6041C17.5412 21.579 17.6502 21.6848 17.648 22.0869C17.6305 25.8106 17.6436 29.5344 17.6284 33.2592C17.6273 33.6439 17.7417 33.7354 18.1079 33.73C19.4799 33.7104 20.853 33.7071 22.2262 33.7322C22.613 33.7387 22.6893 33.6134 22.6861 33.2538C22.6686 31.3924 22.6784 29.53 22.6784 27.6676V27.6687Z" fill="#2F2F88"/>
</svg>
