<svg width="22" height="17" viewBox="0 0 22 17" fill="none" xmlns="http://www.w3.org/2000/svg">
<path fill-rule="evenodd" clip-rule="evenodd" d="M1.07394 1.06697C0 2.13394 0 3.8512 0 7.28571V9.71429C0 13.1488 0 14.8661 1.07394 15.933C2.14788 17 3.87637 17 7.33333 17H14.6667C18.1236 17 19.8521 17 20.9261 15.933C22 14.8661 22 13.1488 22 9.71429V7.28571C22 3.8512 22 2.13394 20.9261 1.06697C19.8521 0 18.1236 0 14.6667 0H7.33333C3.87637 0 2.14788 0 1.07394 1.06697ZM4.34463 3.8468C3.78299 3.4748 3.02415 3.62558 2.64972 4.18358C2.27529 4.74158 2.42705 5.49549 2.9887 5.86749L9.64407 10.2756C10.4652 10.8194 11.5348 10.8194 12.3559 10.2756L19.0113 5.86749C19.5729 5.49549 19.7247 4.74158 19.3503 4.18358C18.9759 3.62558 18.217 3.4748 17.6554 3.8468L11 8.2549L4.34463 3.8468Z" fill="white"/>
</svg>
