<svg width="20" height="20" viewBox="0 0 20 20" fill="none" xmlns="http://www.w3.org/2000/svg">
<path d="M2.10929 1.0876L2.84536 0.351537C3.31407 -0.117179 4.07401 -0.117179 4.54273 0.351536L7.64625 3.45505C8.11496 3.92377 8.11496 4.68371 7.64624 5.15243L5.49495 7.30372C5.13623 7.66244 5.0473 8.21047 5.27417 8.66422C6.58572 11.2873 8.71268 13.4143 11.3358 14.7258C11.7895 14.9527 12.3376 14.8638 12.6963 14.505L14.8476 12.3538C15.3163 11.885 16.0762 11.885 16.5449 12.3538L19.6485 15.4573C20.1172 15.926 20.1172 16.6859 19.6485 17.1546L18.9124 17.8907C16.3783 20.4248 12.3665 20.7099 9.49949 18.5597L8.04913 17.4719C5.95651 15.9024 4.09758 14.0435 2.52811 11.9509L1.44034 10.5005C-0.709904 7.63351 -0.424796 3.62169 2.10929 1.0876Z" fill="white"/>
</svg>
