<svg width="43" height="42" viewBox="0 0 43 42" fill="none" xmlns="http://www.w3.org/2000/svg">
<path d="M20.549 0C21.4183 0 22.2887 0 23.158 0C23.2626 0.0228845 23.3661 0.0588458 23.4718 0.0664739C26.6375 0.306216 29.5809 1.24339 32.3348 2.82133C39.5736 6.96886 43.7284 15.41 42.5431 23.668C41.7218 29.3858 39.0202 34.0445 34.422 37.5327C29.8685 40.9872 24.6951 42.3025 19.0348 41.568C14.8561 41.0253 11.173 39.3177 8.0258 36.5116C4.41568 33.2914 2.15962 29.2932 1.3023 24.5223C1.16395 23.7497 1.08552 22.9662 0.97876 22.187C0.97876 21.3174 0.97876 20.4467 0.97876 19.5771C1.08443 19.3188 1.04739 19.0421 1.0768 18.774C1.55939 14.3507 3.23155 10.4397 6.18152 7.10399C9.42563 3.43812 13.466 1.15839 18.2973 0.314934C19.0436 0.185255 19.7985 0.103525 20.549 0ZM26.351 16.8037C26.4664 16.8833 26.5547 16.9443 26.6429 17.0053C28.2453 18.118 30.0166 18.7228 31.9698 18.7958C32.2215 18.8056 32.3326 18.762 32.3282 18.4754C32.313 17.402 32.313 16.3275 32.3282 15.2541C32.3326 14.9762 32.228 14.9174 31.9764 14.9141C31.5548 14.9087 31.1398 14.8259 30.7334 14.7136C28.2737 14.0325 26.5623 11.998 26.3259 9.43603C26.291 9.06116 26.1919 8.93911 25.8008 8.95218C24.8378 8.98488 23.8716 8.98379 22.9075 8.95218C22.5055 8.93911 22.3879 9.03391 22.389 9.45673C22.4031 14.6482 22.3955 19.8408 22.3911 25.0323C22.3911 25.3037 22.3802 25.5761 22.3519 25.8464C22.1689 27.639 20.5523 29.0164 18.7167 28.9478C16.8975 28.8791 15.3724 27.3567 15.3299 25.5663C15.2755 23.2103 17.3202 21.5179 19.6481 22.0018C19.8889 22.0519 19.9826 22.0377 19.9782 21.7522C19.9619 20.6516 19.9641 19.5499 19.9782 18.4492C19.9815 18.1833 19.8922 18.1147 19.6362 18.0874C18.8987 18.0068 18.1732 18.046 17.4466 18.1779C13.3756 18.9167 10.6533 22.9477 11.5357 26.9317C12.4508 31.0651 16.599 33.6336 20.6591 32.5809C24.0786 31.6939 26.3161 28.8115 26.315 25.2732C26.315 22.6088 26.2965 19.9454 26.2899 17.281C26.2899 17.1361 26.2507 16.9846 26.351 16.8016V16.8037Z" fill="#2F2F88"/>
</svg>
