<svg width="30" height="30" viewBox="0 0 30 30" fill="none" xmlns="http://www.w3.org/2000/svg">
<path d="M26 6L23.5384 7.88721C23.1892 8.15491 22.7615 8.3 22.3216 8.3H16.7482C15.9843 8.3 15.2872 8.73507 14.9516 9.42123L14.6885 9.95905C14.2842 10.7857 14.4961 11.7816 15.202 12.372L19.7876 16.2072C21.326 17.4939 22.1198 19.4642 21.9031 21.458L21.6151 24.1078C21.5387 24.8106 21.3695 25.5002 21.1119 26.1585L20 29" stroke="#2F2F88" stroke-width="1.7"/>
<path d="M1 12.5L6.90705 11.4776C8.25944 11.2436 9.44035 12.4101 9.22286 13.7653L8.68004 17.1475C8.40674 18.8503 9.25563 20.5366 10.7862 21.3313L11.9162 21.918C13.1403 22.5536 13.7733 23.9418 13.4505 25.2827L12.5556 29" stroke="#2F2F88" stroke-width="1.7"/>
<circle cx="15" cy="15" r="14.15" stroke="#2F2F88" stroke-width="1.7"/>
</svg>
