<svg width="15" height="15" viewBox="0 0 15 15" fill="none" xmlns="http://www.w3.org/2000/svg">
<path d="M2.88713 0C2.97521 0 3.06655 0.00326371 3.15137 0.0130548C3.44498 0.0391645 3.72227 0.110966 3.98325 0.215405L4.75315 5.08159C4.31274 5.45692 3.75816 5.70169 3.15137 5.75718C3.61461 7.19974 4.41388 8.49216 5.46107 9.53981V9.54308C6.50826 10.5907 7.80013 11.3903 9.24206 11.8505C9.29752 11.2402 9.54219 10.6886 9.91736 10.248L14.7847 11.0183C14.8923 11.2794 14.9609 11.5568 14.987 11.8505C14.9967 11.9386 15 12.0268 15 12.1149C15 13.7076 13.7081 15 12.1161 15C5.42845 15.0065 0.00326229 9.58224 0 2.88838C0.00326229 1.29569 1.29513 0 2.88713 0Z" fill="#05B4EA"/>
</svg>
