<svg width="31" height="31" viewBox="0 0 31 31" fill="none" xmlns="http://www.w3.org/2000/svg">
<path d="M21.0028 22.2417C19.9529 23.0539 18.8376 23.6934 17.6205 24.1563C15.7883 24.8525 13.8948 25.1336 11.9372 24.9943C9.86344 24.8461 7.932 24.2568 6.1625 23.1738C3.11191 21.3069 1.09298 18.6742 0.322491 15.2021C-0.496312 11.5121 0.242831 8.10446 2.55428 5.07847C4.67507 2.30132 7.50758 0.616198 10.9904 0.143024C15.4566 -0.464237 19.2999 0.863745 22.4171 4.0986C24.342 6.09573 25.4416 8.49899 25.7184 11.2375C26.0188 14.2016 25.3175 16.9388 23.6238 19.4129C23.2738 19.9248 22.8716 20.4018 22.4197 20.9923C22.4955 21.0362 22.6169 21.0774 22.6992 21.1574C25.2104 23.5903 27.7178 26.0296 30.2277 28.4638C30.5137 28.741 30.7096 29.0466 30.6234 29.4566C30.4798 30.1373 29.6832 30.4519 29.0981 30.0639C28.9923 29.9929 28.8983 29.9014 28.8056 29.8124C26.2826 27.3628 23.7596 24.9118 21.2379 22.4621C21.1674 22.3938 21.0942 22.3293 21.0015 22.2429L21.0028 22.2417ZM1.9823 12.7279C2.03845 13.1959 2.07371 13.8676 2.2043 14.5213C2.66659 16.8343 3.78053 18.8044 5.5879 20.3477C8.68682 22.9933 12.2559 23.7437 16.1618 22.6014C19.1732 21.7208 21.4103 19.8204 22.754 16.9994C24.2846 13.7838 24.1958 10.5503 22.455 7.45466C20.6646 4.27137 17.8412 2.45732 14.1808 2.0138C11.2908 1.6644 8.63197 2.35933 6.30223 4.10247C3.4867 6.21048 2.08546 9.04952 1.9823 12.7279Z" fill="#2F2F88"/>
</svg>
