<svg width="43" height="42" viewBox="0 0 43 42" fill="none" xmlns="http://www.w3.org/2000/svg">
<path d="M20.4668 0.000817327C21.3372 0.000817327 22.2068 0.000817327 23.0773 0.000817327C23.3339 0.118512 23.6118 0.0694728 23.8799 0.0980792C28.2763 0.577033 32.1954 2.20433 35.4868 5.16142C40.9947 10.1095 43.3617 16.3261 42.4488 23.6673C41.7442 29.3371 39.0005 33.951 34.4757 37.4352C29.9077 40.953 24.7038 42.2991 18.9939 41.5758C15.1035 41.0829 11.6208 39.5644 8.59263 37.0666C4.6147 33.7859 2.13738 29.6052 1.21461 24.5231C1.07403 23.7507 0.996389 22.9669 0.890137 22.188V19.5774C0.994755 19.3192 0.958788 19.0429 0.988212 18.7748C1.47125 14.3514 3.14432 10.4397 6.09487 7.10502C9.33966 3.43768 13.3813 1.15815 18.215 0.314671C18.9612 0.184716 19.7164 0.103801 20.4668 0V0.000817327ZM9.77775 20.8811C9.8039 22.8786 9.7328 24.8778 9.94367 26.8704C10.2649 29.9035 12.3425 32.1332 15.3388 32.6367C16.8607 32.8925 18.3989 32.8745 19.9347 32.8672C22.5297 32.8549 25.1312 32.9947 27.7173 32.7062C30.1104 32.4397 31.9379 31.2873 32.9931 29.0617C33.4533 28.0907 33.629 27.0462 33.6813 25.9804C33.8211 23.168 33.7557 20.3531 33.7467 17.5398C33.7442 16.6571 33.6976 15.7744 33.602 14.895C33.2694 11.8512 31.2138 9.64283 28.2044 9.132C26.6964 8.87617 25.1713 8.89415 23.6494 8.90151C21.0405 8.91377 18.4283 8.79607 15.8252 9.05517C12.5894 9.37719 10.2755 11.7 9.93958 14.9334C9.73443 16.9129 9.80309 18.8982 9.77775 20.8819V20.8811Z" fill="#2F2F88"/>
<path d="M21.7591 11.0449C23.5792 11.0972 25.4011 11.0212 27.2196 11.1683C29.7296 11.371 31.33 12.915 31.4738 15.4193C31.6822 19.0441 31.6814 22.6739 31.4763 26.2979C31.3316 28.8569 29.746 30.4409 27.1828 30.5872C23.5719 30.7932 19.956 30.7924 16.3451 30.5864C13.8056 30.4417 12.2151 28.8561 12.0696 26.3248C11.8612 22.7 11.8612 19.0703 12.0696 15.4462C12.2151 12.9125 13.8081 11.3727 16.3402 11.1675C18.1448 11.022 19.9536 11.098 21.7599 11.0449H21.7591ZM27.925 20.879C27.9225 17.4797 25.1918 14.7433 21.7893 14.7294C18.3802 14.7155 15.616 17.4732 15.6185 20.8847C15.6209 24.2807 18.3541 27.0204 21.755 27.0351C25.1616 27.0498 27.9282 24.2897 27.925 20.879ZM29.6062 14.5202C29.6234 13.7282 29.012 13.0735 28.2323 13.049C27.4182 13.0237 26.7578 13.6408 26.7423 14.4425C26.7268 15.2394 27.3332 15.8892 28.1138 15.9129C28.9278 15.9374 29.589 15.3204 29.6062 14.5202Z" fill="#2F2F88"/>
<path d="M21.7821 24.8795C19.5851 24.8836 17.7846 23.0969 17.7764 20.9032C17.7682 18.6875 19.5688 16.8828 21.7829 16.8877C23.9807 16.8926 25.7682 18.685 25.7674 20.8844C25.7674 23.083 23.9791 24.8754 21.7813 24.8795H21.7821Z" fill="#2F2F88"/>
</svg>
