<svg width="42" height="42" viewBox="0 0 42 42" fill="none" xmlns="http://www.w3.org/2000/svg">
<path d="M0.0673828 22.1991C0.0673828 21.3299 0.0673828 20.4597 0.0673828 19.5905C0.0924337 19.4587 0.129466 19.328 0.139268 19.1951C0.211153 18.1909 0.356012 17.1965 0.597807 16.2206C2.19779 9.77167 5.97611 5.03924 11.9175 2.09087C15.8516 0.13908 20.0416 -0.426201 24.3678 0.311165C29.7831 1.23369 34.1975 3.90433 37.5271 8.26753C41.0114 12.8344 42.3521 18.0221 41.6137 23.7119C41.0691 27.9052 39.3438 31.5931 36.5262 34.7441C33.3142 38.3373 29.3257 40.5809 24.5747 41.4403C23.8036 41.5797 23.0216 41.6581 22.2439 41.7649H19.6354C19.1267 41.7017 18.6159 41.6472 18.1083 41.5743C13.9554 40.9796 10.2849 39.3164 7.14697 36.5292C3.52331 33.3097 1.26002 29.307 0.394133 24.5299C0.25472 23.7588 0.176301 22.9756 0.068473 22.198L0.0673828 22.1991ZM34.8336 20.8921C34.8292 13.2232 28.6014 6.99647 20.9369 6.99974C13.2692 7.00301 7.04132 13.232 7.0435 20.8964C7.04568 28.562 13.279 34.7931 20.9402 34.7898C28.6068 34.7866 34.8369 28.5544 34.8325 20.8932L34.8336 20.8921Z" fill="#2F2F88"/>
<path d="M20.9364 17.9693C22.1323 17.9693 23.3271 17.9736 24.523 17.9649C24.7506 17.9627 24.853 18.0041 24.8748 18.2666C25.0229 20.0169 25.024 21.7661 24.8748 23.5164C24.853 23.7713 24.7637 23.8246 24.5285 23.8235C22.1377 23.8159 19.747 23.8159 17.3563 23.8235C17.1287 23.8235 17.0274 23.7843 17.0045 23.5218C16.8553 21.7716 16.8553 20.0234 17.0045 18.2721C17.0263 18.0172 17.1156 17.9627 17.3508 17.9649C18.5457 17.9758 19.7416 17.9693 20.9375 17.9693H20.9364Z" fill="#2F2F88"/>
<path d="M20.8934 15.82C19.8206 15.82 18.7488 15.8179 17.676 15.8222C17.4593 15.8222 17.3133 15.8233 17.3776 15.5183C17.6825 14.0676 18.067 12.644 18.7369 11.3142C19.0495 10.6933 19.4132 10.1052 19.9339 9.63248C20.6287 9.00076 21.2583 8.99859 21.9466 9.63902C22.7319 10.3698 23.1807 11.3142 23.5728 12.2868C23.9954 13.3335 24.2655 14.4248 24.4986 15.5271C24.5541 15.7885 24.4528 15.8244 24.2328 15.8233C23.1197 15.8168 22.0065 15.82 20.8934 15.82Z" fill="#2F2F88"/>
<path d="M20.9561 25.9698C22.0289 25.9698 23.1007 25.9752 24.1735 25.9654C24.4458 25.9633 24.5569 25.9938 24.4872 26.3238C24.1844 27.7615 23.7967 29.1687 23.1334 30.4877C22.8273 31.0965 22.4679 31.6716 21.9625 32.1399C21.2567 32.7934 20.6228 32.7945 19.9192 32.1432C19.3616 31.628 18.9815 30.9865 18.6558 30.3112C18.0317 29.0205 17.6668 27.6471 17.3749 26.2508C17.3161 25.9687 17.4588 25.9687 17.6581 25.9687C18.7582 25.972 19.8571 25.9709 20.9572 25.9709L20.9561 25.9698Z" fill="#2F2F88"/>
<path d="M12.205 17.9694C12.9783 17.9694 13.7517 17.9781 14.525 17.965C14.7733 17.9607 14.8561 18.0315 14.8354 18.2874C14.696 20.0214 14.696 21.7575 14.8354 23.4926C14.855 23.7365 14.7951 23.8258 14.5348 23.8247C12.974 23.8149 11.4132 23.816 9.85352 23.8237C9.63896 23.8237 9.55292 23.7583 9.50391 23.5405C9.10091 21.7782 9.102 20.0214 9.50064 18.258C9.55618 18.0119 9.6651 17.9639 9.8862 17.9672C10.6595 17.977 11.4328 17.9705 12.2061 17.9705L12.205 17.9694Z" fill="#2F2F88"/>
<path d="M29.6834 17.9703C30.4567 17.9703 31.23 17.9779 32.0033 17.966C32.2353 17.9627 32.3268 18.0335 32.3791 18.2687C32.7734 20.0179 32.7723 21.7617 32.3824 23.512C32.3235 23.7767 32.2092 23.8257 31.9717 23.8235C30.4382 23.8159 28.9047 23.8148 27.3711 23.8235C27.1086 23.8257 27.016 23.7625 27.0389 23.4804C27.1794 21.7595 27.1816 20.0375 27.0389 18.3167C27.0128 18.0062 27.1326 17.9583 27.4016 17.9638C28.1608 17.9779 28.921 17.9692 29.6812 17.9692L29.6834 17.9703Z" fill="#2F2F88"/>
<path d="M24.8773 9.84424C26.1092 10.2712 27.2201 10.8996 28.2319 11.7045C29.5237 12.7316 30.5475 13.9809 31.3317 15.4328C31.5136 15.7693 31.4363 15.8292 31.0856 15.8249C29.7557 15.8107 28.4258 15.8107 27.097 15.8259C26.8258 15.8292 26.7224 15.7464 26.6755 15.4829C26.3346 13.5518 25.8042 11.6817 24.8632 9.94662C24.8534 9.92919 24.8697 9.89761 24.8773 9.84424Z" fill="#2F2F88"/>
<path d="M24.8152 31.954C24.9535 31.6763 25.07 31.453 25.1779 31.2264C25.9011 29.7114 26.3553 28.1114 26.6439 26.4646C26.7071 26.1074 26.8029 25.9462 27.2222 25.9581C28.5369 25.9941 29.8548 25.9777 31.1705 25.9668C31.4591 25.9647 31.4983 26.042 31.3665 26.2871C29.9452 28.9435 27.8344 30.818 25.021 31.9006C24.9753 31.9181 24.9252 31.9257 24.8152 31.9551V31.954Z" fill="#2F2F88"/>
<path d="M17.0677 9.84521C16.0744 11.6663 15.5385 13.5647 15.1911 15.523C15.1486 15.7605 15.0528 15.8258 14.8186 15.8237C13.4463 15.8128 12.0739 15.8193 10.7016 15.8171C10.5491 15.8171 10.3323 15.8705 10.4794 15.5721C11.7156 13.0615 14.2337 10.747 17.0666 9.84521H17.0677Z" fill="#2F2F88"/>
<path d="M17.0885 31.983C14.9135 31.189 13.1904 29.9604 11.805 28.2581C11.3062 27.646 10.8825 26.9838 10.51 26.2867C10.3793 26.0416 10.4163 25.9632 10.706 25.9654C12.0784 25.9752 13.4507 25.9752 14.822 25.9654C15.0605 25.9632 15.1487 26.0384 15.1901 26.2714C15.5376 28.2298 16.0756 30.1271 17.0875 31.9841L17.0885 31.983Z" fill="#2F2F88"/>
</svg>
