<svg width="22" height="22" viewBox="0 0 22 22" fill="none" xmlns="http://www.w3.org/2000/svg">
<path fill-rule="evenodd" clip-rule="evenodd" d="M9.8321 0V7.33266C7.86049 7.14989 6.03337 6.43185 4.6543 5.31136C3.93509 4.727 3.36815 4.05934 2.96151 3.34419C4.7213 1.4838 7.13355 0.247008 9.8321 0ZM11.8321 1.20897e-06V7.33266C13.8037 7.14989 15.6308 6.43185 17.0099 5.31136C17.7291 4.72701 18.296 4.05934 18.7027 3.3442C16.9429 1.48381 14.5307 0.247012 11.8321 1.20897e-06ZM20.0038 5.02071C19.5288 5.69433 18.9467 6.31469 18.2711 6.86358C16.5124 8.29256 14.2315 9.15221 11.8321 9.33982L11.8321 12.2321C12.8607 12.3125 13.8729 12.5168 14.8357 12.8408C16.1093 13.2694 17.2779 13.9014 18.2711 14.7083C18.9423 15.2537 19.5259 15.873 20.0043 16.5516C21.0559 14.8821 21.6642 12.9054 21.6642 10.7866C21.6642 8.6674 21.0557 6.69038 20.0038 5.02071ZM18.703 18.2285C18.2933 17.5083 17.7234 16.8402 17.0099 16.2606C16.2149 15.6146 15.2607 15.0941 14.1978 14.7364C13.4424 14.4821 12.6458 14.3148 11.8321 14.2393V21.5731C14.5308 21.3261 16.9432 20.0891 18.703 18.2285ZM9.8321 21.5731V14.2393C9.01838 14.3148 8.22182 14.4821 7.46639 14.7364C6.40353 15.0941 5.44929 15.6146 4.6543 16.2606C3.94084 16.8402 3.37089 17.5083 2.96116 18.2285C4.72098 20.0891 7.13337 21.3261 9.8321 21.5731ZM1.65988 16.5516C2.13825 15.8731 2.72194 15.2537 3.39311 14.7083C4.3863 13.9014 5.55494 13.2694 6.82845 12.8408C7.79131 12.5168 8.80351 12.3125 9.8321 12.2321L9.8321 9.33982C7.43266 9.15221 5.15185 8.29256 3.39311 6.86358C2.71755 6.31469 2.13544 5.69432 1.6604 5.0207C0.60854 6.69037 0 8.6674 0 10.7866C0 12.9054 0.608341 14.8821 1.65988 16.5516Z" fill="white"/>
</svg>
