<?xml version="1.0" encoding="UTF-8"?>
<!DOCTYPE svg PUBLIC "-//W3C//DTD SVG 1.1//EN" "http://www.w3.org/Graphics/SVG/1.1/DTD/svg11.dtd">
<svg xmlns="http://www.w3.org/2000/svg" version="1.1" width="564px" height="564px" style="shape-rendering:geometricPrecision; text-rendering:geometricPrecision; image-rendering:optimizeQuality; fill-rule:evenodd; clip-rule:evenodd" xmlns:xlink="http://www.w3.org/1999/xlink">
<g><path style="opacity:0.983" fill="#fefffe" d="M 563.5,267.5 C 563.5,277.5 563.5,287.5 563.5,297.5C 554.873,397.303 508.206,473.47 423.5,526C 386.14,547.288 346.14,559.788 303.5,563.5C 289.167,563.5 274.833,563.5 260.5,563.5C 161.801,552.911 86.9678,505.244 36,420.5C 1.02484,355.702 -8.30849,287.368 8,215.5C 35.7567,114.409 99.2567,46.909 198.5,13C 295.114,-13.61 382.781,3.7233 461.5,65C 523.536,118.238 557.536,185.738 563.5,267.5 Z M 300.5,41.5 C 322.133,49.6171 339.966,62.9505 354,81.5C 369.533,102.224 381.699,124.891 390.5,149.5C 360.507,150.5 330.507,150.833 300.5,150.5C 300.5,114.167 300.5,77.8333 300.5,41.5 Z M 259.5,42.5 C 260.5,42.5 261.5,42.5 262.5,42.5C 262.5,78.5 262.5,114.5 262.5,150.5C 232.498,150.667 202.498,150.5 172.5,150C 181.93,123.961 195.097,100.128 212,78.5C 224.934,62.4737 240.768,50.4737 259.5,42.5 Z M 172.5,64.5 C 173.239,64.369 173.906,64.5357 174.5,65C 155.587,90.9942 141.587,119.494 132.5,150.5C 114.164,150.667 95.8303,150.5 77.5,150C 101.841,113.149 133.508,84.6485 172.5,64.5 Z M 389.5,64.5 C 428.973,84.3014 460.973,112.635 485.5,149.5C 467.509,150.666 449.509,150.833 431.5,150C 421.599,119.366 407.599,90.8658 389.5,64.5 Z M 57.5,188.5 C 79.1692,188.333 100.836,188.5 122.5,189C 116.769,213.466 113.769,238.299 113.5,263.5C 88.8333,263.5 64.1667,263.5 39.5,263.5C 40.9481,237.376 46.9481,212.376 57.5,188.5 Z M 161.5,188.5 C 195.167,188.5 228.833,188.5 262.5,188.5C 262.5,213.5 262.5,238.5 262.5,263.5C 225.5,263.5 188.5,263.5 151.5,263.5C 152.406,238.161 155.739,213.161 161.5,188.5 Z M 300.5,188.5 C 334.5,188.5 368.5,188.5 402.5,188.5C 407.702,213.25 411.036,238.25 412.5,263.5C 375.167,263.5 337.833,263.5 300.5,263.5C 300.5,238.5 300.5,213.5 300.5,188.5 Z M 441.5,188.5 C 463.177,188.167 484.844,188.5 506.5,189.5C 516.44,213.197 522.44,237.864 524.5,263.5C 499.833,263.5 475.167,263.5 450.5,263.5C 449.473,238.254 446.473,213.254 441.5,188.5 Z M 39.5,301.5 C 64.1667,301.5 88.8333,301.5 113.5,301.5C 114.194,326.383 116.86,351.05 121.5,375.5C 99.8333,375.5 78.1667,375.5 56.5,375.5C 47.0564,351.724 41.3897,327.057 39.5,301.5 Z M 151.5,301.5 C 188.5,301.5 225.5,301.5 262.5,301.5C 262.5,326.167 262.5,350.833 262.5,375.5C 228.827,375.833 195.16,375.5 161.5,374.5C 155.628,350.527 152.295,326.193 151.5,301.5 Z M 300.5,301.5 C 337.833,301.5 375.167,301.5 412.5,301.5C 410.942,326.404 407.609,351.071 402.5,375.5C 368.5,375.5 334.5,375.5 300.5,375.5C 300.5,350.833 300.5,326.167 300.5,301.5 Z M 450.5,301.5 C 475.167,301.5 499.833,301.5 524.5,301.5C 522.343,326.961 516.343,351.461 506.5,375C 484.836,375.5 463.169,375.667 441.5,375.5C 446.469,351.082 449.469,326.416 450.5,301.5 Z M 173.5,499.5 C 143.584,484.938 117.751,464.938 96,439.5C 89.6405,431.307 83.4738,422.974 77.5,414.5C 95.8212,413.5 114.155,413.167 132.5,413.5C 141.586,444.464 155.253,473.131 173.5,499.5 Z M 172.5,414.5 C 202.329,413.502 232.329,413.169 262.5,413.5C 262.833,449.839 262.5,486.173 261.5,522.5C 242.829,515.237 226.995,503.904 214,488.5C 196.282,466.069 182.449,441.402 172.5,414.5 Z M 300.5,413.5 C 330.507,413.167 360.507,413.5 390.5,414.5C 379.283,447.462 361.616,476.296 337.5,501C 326.925,510.458 314.925,517.625 301.5,522.5C 300.5,486.173 300.167,449.839 300.5,413.5 Z M 431.5,413.5 C 449.836,413.333 468.17,413.5 486.5,414C 461.846,451.326 429.679,480.16 390,500.5C 407.709,473.644 421.542,444.644 431.5,413.5 Z"/></g>
</svg>
