<svg width="61" height="61" viewBox="0 0 61 61" fill="none" xmlns="http://www.w3.org/2000/svg">
<path d="M21.7875 39.6389C18.875 41.9264 17 45.4764 17 49.4639V53.2139H9.5C7.425 53.2139 5.75 51.5389 5.75 49.4639V46.9639C5.75 42.1264 9.6625 38.2139 14.5 38.2139H17C18.775 38.2139 20.4125 38.7389 21.7875 39.6389Z" fill="#8B1F16"/>
<path d="M45.75 38.2139C48.8566 38.2139 51.375 35.6955 51.375 32.5889C51.375 29.4823 48.8566 26.9639 45.75 26.9639C42.6434 26.9639 40.125 29.4823 40.125 32.5889C40.125 35.6955 42.6434 38.2139 45.75 38.2139Z" fill="#8B1F16"/>
<path d="M15.75 38.2139C18.8566 38.2139 21.375 35.6955 21.375 32.5889C21.375 29.4823 18.8566 26.9639 15.75 26.9639C12.6434 26.9639 10.125 29.4823 10.125 32.5889C10.125 35.6955 12.6434 38.2139 15.75 38.2139Z" fill="#8B1F16"/>
<path d="M55.7504 46.9639V49.4639C55.7504 51.5389 54.0754 53.2139 52.0004 53.2139H44.5004V49.4639C44.5004 45.4764 42.6254 41.9264 39.7129 39.6389C41.0879 38.7389 42.7254 38.2139 44.5004 38.2139H47.0004C51.8379 38.2139 55.7504 42.1264 55.7504 46.9639Z" fill="#8B1F16"/>
<path d="M30.75 39.4639C34.547 39.4639 37.625 36.3858 37.625 32.5889C37.625 28.7919 34.547 25.7139 30.75 25.7139C26.953 25.7139 23.875 28.7919 23.875 32.5889C23.875 36.3858 26.953 39.4639 30.75 39.4639Z" fill="#8B1F16"/>
<path d="M32 39.4639H29.5C23.9863 39.4639 19.5 43.9501 19.5 49.4639V53.2139C19.5 55.2814 21.1825 56.9639 23.25 56.9639H38.25C40.3175 56.9639 42 55.2814 42 53.2139V49.4639C42 43.9501 37.5138 39.4639 32 39.4639Z" fill="#8B1F16"/>
<path d="M48.8749 21.569L45.8587 22.6415C45.0024 22.9452 44.1087 22.2965 44.1337 21.3877L44.2212 18.1877L42.2687 15.6502C41.7149 14.9302 42.0562 13.879 42.9274 13.6215L45.9987 12.7165L47.8087 10.0752C48.3224 9.32648 49.4274 9.32648 49.9412 10.0752L51.7512 12.7165L54.8224 13.6215C55.6937 13.8777 56.0349 14.9302 55.4812 15.6502L53.5287 18.1877L53.6162 21.3877C53.6412 22.2952 52.7462 22.9452 51.8912 22.6415L48.8749 21.569Z" fill="#8B1F16"/>
<path d="M12.6249 21.569L9.6087 22.6415C8.75245 22.9452 7.8587 22.2965 7.8837 21.3877L7.9712 18.1877L6.0187 15.6502C5.46495 14.9302 5.8062 13.879 6.67745 13.6215L9.7487 12.7165L11.5587 10.0752C12.0724 9.32648 13.1774 9.32648 13.6912 10.0752L15.5012 12.7165L18.5724 13.6215C19.4437 13.8777 19.7849 14.9302 19.2312 15.6502L17.2787 18.1877L17.3662 21.3877C17.3912 22.2952 16.4962 22.9452 15.6412 22.6415L12.6249 21.569Z" fill="#8B1F16"/>
<path d="M30.7497 18.7565L27.1735 20.0277C26.1585 20.389 25.0985 19.6177 25.1285 18.5415L25.2322 14.7477L22.9172 11.739C22.261 10.8852 22.666 9.63896 23.6985 9.33396L27.3397 8.26022L29.486 5.12896C30.0947 4.24021 31.406 4.24021 32.0147 5.12896L34.161 8.26022L37.8022 9.33396C38.8347 9.63896 39.2397 10.8852 38.5835 11.739L36.2685 14.7477L36.3722 18.5415C36.4022 19.6177 35.341 20.389 34.3272 20.0277L30.7497 18.7565Z" fill="#8B1F16"/>
</svg>
