<svg width="42" height="42" viewBox="0 0 42 42" fill="none" xmlns="http://www.w3.org/2000/svg">
<path d="M38.5 13.8425C38.4586 11.0851 37.3342 8.45468 35.3695 6.51949C33.4048 4.58429 30.7577 3.49969 28 3.5H13.79C11.0418 3.55498 8.42471 4.68544 6.50077 6.64865C4.57682 8.61185 3.49945 11.2512 3.5 14V28.14C3.53681 30.9004 4.65928 33.5353 6.62444 35.4743C8.5896 37.4132 11.2393 38.5002 14 38.5H17.045V26.25H13.8075C13.5754 26.25 13.3529 26.1578 13.1888 25.9937C13.0247 25.8296 12.9325 25.6071 12.9325 25.375V21.91C12.9325 21.6779 13.0247 21.4554 13.1888 21.2913C13.3529 21.1272 13.5754 21.035 13.8075 21.035H17.045V15.785C17.0496 14.1527 17.7001 12.5885 18.8543 11.4343C20.0085 10.2801 21.5727 9.62962 23.205 9.625H28.1925C28.4246 9.625 28.6471 9.71719 28.8112 9.88128C28.9753 10.0454 29.0675 10.2679 29.0675 10.5V14C29.0675 14.2321 28.9753 14.4546 28.8112 14.6187C28.6471 14.7828 28.4246 14.875 28.1925 14.875H25.27C24.7223 14.875 24.1971 15.0926 23.8098 15.4798C23.4226 15.8671 23.205 16.3923 23.205 16.94V21H28C28.1448 20.9978 28.2879 21.0316 28.4164 21.0983C28.5449 21.1651 28.6548 21.2626 28.7363 21.3823C28.8179 21.502 28.8684 21.64 28.8834 21.784C28.8985 21.9281 28.8775 22.0736 28.8225 22.2075L27.475 25.585C27.411 25.7508 27.298 25.8933 27.1511 25.9933C27.0042 26.0933 26.8303 26.1463 26.6525 26.145H23.1525V38.395H28.1575C30.921 38.3628 33.5603 37.2423 35.5031 35.2766C37.4458 33.311 38.5352 30.6587 38.535 27.895L38.5 13.8425Z" fill="#202226"/>
<path d="M38.5 13.8425C38.4586 11.0851 37.3342 8.45468 35.3695 6.51949C33.4048 4.58429 30.7577 3.49969 28 3.5H13.79C11.0418 3.55498 8.42471 4.68544 6.50077 6.64865C4.57682 8.61185 3.49945 11.2512 3.5 14V28.14C3.53681 30.9004 4.65928 33.5353 6.62444 35.4743C8.5896 37.4132 11.2393 38.5002 14 38.5H17.045V26.25H13.8075C13.5754 26.25 13.3529 26.1578 13.1888 25.9937C13.0247 25.8296 12.9325 25.6071 12.9325 25.375V21.91C12.9325 21.6779 13.0247 21.4554 13.1888 21.2913C13.3529 21.1272 13.5754 21.035 13.8075 21.035H17.045V15.785C17.0496 14.1527 17.7001 12.5885 18.8543 11.4343C20.0085 10.2801 21.5727 9.62962 23.205 9.625H28.1925C28.4246 9.625 28.6471 9.71719 28.8112 9.88128C28.9753 10.0454 29.0675 10.2679 29.0675 10.5V14C29.0675 14.2321 28.9753 14.4546 28.8112 14.6187C28.6471 14.7828 28.4246 14.875 28.1925 14.875H25.27C24.7223 14.875 24.1971 15.0926 23.8098 15.4798C23.4226 15.8671 23.205 16.3923 23.205 16.94V21H28C28.1448 20.9978 28.2879 21.0316 28.4164 21.0983C28.5449 21.1651 28.6548 21.2626 28.7363 21.3823C28.8179 21.502 28.8684 21.64 28.8834 21.784C28.8985 21.9281 28.8775 22.0736 28.8225 22.2075L27.475 25.585C27.411 25.7508 27.298 25.8933 27.1511 25.9933C27.0042 26.0933 26.8303 26.1463 26.6525 26.145H23.1525V38.395H28.1575C30.921 38.3628 33.5603 37.2423 35.5031 35.2766C37.4458 33.311 38.5352 30.6587 38.535 27.895L38.5 13.8425Z" fill="white"/>
<path d="M38.5 13.8425C38.4586 11.0851 37.3342 8.45468 35.3695 6.51949C33.4048 4.58429 30.7577 3.49969 28 3.5H13.79C11.0418 3.55498 8.42471 4.68544 6.50077 6.64865C4.57682 8.61185 3.49945 11.2512 3.5 14V28.14C3.53681 30.9004 4.65928 33.5353 6.62444 35.4743C8.5896 37.4132 11.2393 38.5002 14 38.5H17.045V26.25H13.8075C13.5754 26.25 13.3529 26.1578 13.1888 25.9937C13.0247 25.8296 12.9325 25.6071 12.9325 25.375V21.91C12.9325 21.6779 13.0247 21.4554 13.1888 21.2913C13.3529 21.1272 13.5754 21.035 13.8075 21.035H17.045V15.785C17.0496 14.1527 17.7001 12.5885 18.8543 11.4343C20.0085 10.2801 21.5727 9.62962 23.205 9.625H28.1925C28.4246 9.625 28.6471 9.71719 28.8112 9.88128C28.9753 10.0454 29.0675 10.2679 29.0675 10.5V14C29.0675 14.2321 28.9753 14.4546 28.8112 14.6187C28.6471 14.7828 28.4246 14.875 28.1925 14.875H25.27C24.7223 14.875 24.1971 15.0926 23.8098 15.4798C23.4226 15.8671 23.205 16.3923 23.205 16.94V21H28C28.1448 20.9978 28.2879 21.0316 28.4164 21.0983C28.5449 21.1651 28.6548 21.2626 28.7363 21.3823C28.8179 21.502 28.8684 21.64 28.8834 21.784C28.8985 21.9281 28.8775 22.0736 28.8225 22.2075L27.475 25.585C27.411 25.7508 27.298 25.8933 27.1511 25.9933C27.0042 26.0933 26.8303 26.1463 26.6525 26.145H23.1525V38.395H28.1575C30.921 38.3628 33.5603 37.2423 35.5031 35.2766C37.4458 33.311 38.5352 30.6587 38.535 27.895L38.5 13.8425Z" fill="white"/>
</svg>
