<svg width="61" height="61" viewBox="0 0 61 61" fill="none" xmlns="http://www.w3.org/2000/svg">
<g clip-path="url(#clip0_306_448)">
<path d="M18.5313 52.9326C18.1563 52.6514 17.6875 52.3701 17.3125 52.1826C17.4063 51.4326 17.3125 50.5889 17.125 49.7451C16.75 48.3389 16 47.0264 14.9688 45.8076C14.0313 46.5576 13.5625 47.8701 13.75 49.2764C13.0938 48.6201 12.4375 47.9639 11.875 47.3076C12.25 46.6514 12.4375 45.8076 12.4375 44.9639C12.5313 43.5576 12.25 42.1514 11.5938 40.7451C10.375 41.2139 9.62504 42.4326 9.43754 43.8389C8.96879 43.0889 8.59379 42.2451 8.21879 41.4951C8.78129 40.9326 9.25004 40.1826 9.53129 39.3389C10 38.0264 10.0938 36.6201 9.81254 35.1201C8.50004 35.3076 7.37504 36.2451 6.81254 37.6514C6.53129 36.7139 6.34379 35.8701 6.25004 34.9326C7.00004 34.5576 7.65629 33.9014 8.12504 33.1514C8.87504 32.0264 9.43754 30.6201 9.53129 29.1201C8.12504 28.9326 6.71879 29.6826 5.87504 30.9951C5.87504 30.0576 5.96879 29.0264 6.06254 28.0889C6.90629 27.9014 7.75004 27.4326 8.50004 26.8701C9.53129 26.0264 10.375 24.8076 10.9375 23.4014C9.62504 22.8389 8.03129 23.2139 6.81254 24.3389C7.09379 23.4014 7.37504 22.3701 7.75004 21.4326C8.68754 21.5264 9.62504 21.2451 10.4688 20.8701C11.6875 20.3076 12.8125 19.3701 13.75 18.0576C12.625 17.1201 10.9375 17.1201 9.43754 17.9639C10 17.0264 10.5625 16.1826 11.2188 15.3389C12.0625 15.7139 13.0938 15.7139 14.125 15.5264C15.5313 15.2451 16.9375 14.6826 18.25 13.6514C17.4063 12.4326 15.7188 11.9639 13.9375 12.4326C15.25 11.2139 16.6563 10.0889 18.3438 9.15137C18.8125 8.87012 19 8.30762 18.7188 7.83887C18.4375 7.37012 17.7813 7.18262 17.3125 7.46387C15.5313 8.49512 13.9375 9.71387 12.5313 11.0264C13.2813 9.15137 13.375 7.46387 12.5313 6.15137C10.8438 7.27637 9.62504 9.15137 9.34379 10.7451C9.06254 11.9639 9.25004 12.9951 9.81254 13.8389C9.06254 14.7764 8.40629 15.8076 7.84379 16.7451C8.03129 14.7764 7.56254 13.0889 6.43754 12.1514C5.12504 13.9326 4.56254 15.9951 4.75004 17.5889C4.84379 18.8076 5.31254 19.7451 6.06254 20.4014C5.59379 21.5264 5.21879 22.5576 4.93754 23.6826C4.56254 21.8076 3.71879 20.3076 2.31254 19.6514C1.56254 21.7139 1.56254 23.7764 2.12504 25.2764C2.59379 26.4014 3.25004 27.1514 4.18754 27.6201C4.00004 28.7451 4.00004 29.8701 4.00004 30.9951C3.15629 29.3076 1.93754 28.1826 0.437537 27.9951C0.250037 30.1514 0.812537 32.1201 1.75004 33.4326C2.40629 34.3701 3.34379 34.9326 4.28129 35.1201C4.37504 36.2451 4.65629 37.2764 4.84379 38.3076C3.62504 36.9951 2.21879 36.2451 0.718787 36.4326C1.09379 38.5889 2.12504 40.3701 3.43754 41.3076C4.28129 42.0576 5.31254 42.3389 6.15629 42.2451C6.53129 43.1826 7.00004 44.2139 7.46879 45.0576C5.87504 44.4014 4.37504 44.0264 3.06254 44.5889C4.00004 46.5576 5.50004 48.0576 7.00004 48.7139C8.03129 49.1826 8.96879 49.1826 9.81254 48.9951C10.4688 49.8389 11.125 50.5889 11.875 51.3389C10.2813 50.9639 8.87504 51.0576 7.84379 51.9014C9.34379 53.5889 11.3125 54.6201 13 54.9014C14.0313 55.0889 14.9688 54.9014 15.7188 54.5264C16.0938 54.8076 16.5625 55.0889 16.9375 55.3701C17.6875 55.8389 18.625 55.5576 19 54.8076C19.375 54.1514 19.1875 53.3076 18.5313 52.9326Z" fill="#8B1F16"/>
<path d="M55.8438 38.3076C56.1251 37.2764 56.3126 36.1514 56.4063 35.1201C57.3438 34.9326 58.1876 34.3701 58.9376 33.4326C59.8751 32.1201 60.4376 30.1514 60.2501 27.9951C58.7501 28.1826 57.5313 29.4014 56.6876 30.9951C56.6876 29.8701 56.5938 28.7451 56.5001 27.6201C57.3438 27.2451 58.0938 26.4014 58.5626 25.2764C59.1251 23.7764 59.2188 21.7139 58.3751 19.6514C56.9688 20.3076 56.1251 21.8076 55.7501 23.6826C55.4688 22.5576 55.0938 21.4326 54.6251 20.4014C55.3751 19.7451 55.8438 18.8076 55.9376 17.5889C56.1251 15.9951 55.5626 13.9326 54.2501 12.1514C53.0313 13.0889 52.6563 14.8701 52.8438 16.7451C52.0938 15.7139 51.4376 14.7764 50.6876 13.8389C51.2501 13.0889 51.4376 11.9639 51.1563 10.7451C50.8751 9.15137 49.6563 7.27637 47.7813 5.77637C46.9376 6.99512 47.0313 8.77637 47.7813 10.6514C46.3751 9.33887 44.7813 8.12012 43.0001 7.08887C42.5313 6.80762 41.8751 6.99512 41.5938 7.46387C41.3126 7.93262 41.5001 8.49512 41.9688 8.77637C43.5626 9.71387 45.0626 10.8389 46.3751 12.0576C44.5938 11.5889 42.9063 12.0576 42.0626 13.2764C43.3751 14.3076 44.7813 14.8701 46.1876 15.1514C47.2188 15.3389 48.2501 15.3389 49.0938 14.9639C49.7501 15.8076 50.4063 16.7451 50.8751 17.5889C49.3751 16.7451 47.6876 16.7451 46.5626 17.6826C47.5001 18.9014 48.6251 19.9326 49.8438 20.4951C50.7813 20.9639 51.7188 21.1514 52.5626 21.0576C52.9376 21.9951 53.2188 22.9326 53.5001 23.9639C52.2813 22.8389 50.6876 22.4639 49.3751 23.0264C49.9376 24.4326 50.7813 25.6514 51.8126 26.4951C52.5626 27.1514 53.4063 27.5264 54.2501 27.7139C54.3438 28.6514 54.4376 29.6826 54.4376 30.6201C53.5938 29.3076 52.1876 28.5576 50.7813 28.7451C50.9688 30.2451 51.4376 31.6514 52.1876 32.7764C52.6563 33.5264 53.3126 34.1826 54.0626 34.5576C53.8751 35.4951 53.6876 36.3389 53.5001 37.2764C52.9376 35.8701 51.9063 34.8389 50.5001 34.7451C50.2188 36.2451 50.4063 37.7451 50.7813 38.9639C51.0626 39.8076 51.4376 40.5576 52.0938 41.1201C51.7188 41.9639 51.3438 42.7139 50.8751 43.4639C50.6876 42.0576 49.9376 40.8389 48.7188 40.3701C48.0626 41.7764 47.7813 43.1826 47.8751 44.5889C47.8751 45.4326 48.0626 46.2764 48.4376 46.9326C47.8751 47.5889 47.2188 48.2451 46.5626 48.9014C46.7501 47.4951 46.3751 46.1826 45.3438 45.4326C44.3126 46.6514 43.5626 47.9639 43.1876 49.3701C43.0001 50.2139 42.9063 51.0576 43.0001 51.8076C42.6251 52.0889 42.2501 52.3701 41.7813 52.5576C41.1251 52.9326 40.9376 53.7764 41.2188 54.4326C41.5938 55.1826 42.5313 55.4639 43.2813 54.9951C43.7501 54.7139 44.1251 54.4326 44.5001 54.1514C45.2501 54.5264 46.1876 54.7139 47.2188 54.5264C48.9063 54.2451 50.8751 53.2139 52.3751 51.5264C51.3438 50.6826 49.9376 50.5889 48.3438 50.9639C49.0938 50.2139 49.7501 49.4639 50.4063 48.6201C51.2501 48.8076 52.1876 48.7139 53.2188 48.3389C54.7188 47.6826 56.2188 46.2764 57.1563 44.2139C55.8438 43.6514 54.3438 44.0264 52.9376 44.8701C53.4063 43.9326 53.8751 42.9951 54.2501 42.0576C55.1876 42.0576 56.1251 41.7764 56.9688 41.1201C58.1876 40.0889 59.3126 38.4014 59.6876 36.2451C58.4688 36.2451 57.0626 37.0889 55.8438 38.3076Z" fill="#8B1F16"/>
<path d="M41.7812 46.9326L39.8125 35.5889L48.0625 27.5264C48.3438 27.2451 48.4375 26.8701 48.3438 26.5889C48.25 26.2139 47.9688 26.0264 47.5938 25.9326L36.1562 24.2451L31.0938 13.9326C30.9063 13.6514 30.625 13.3701 30.25 13.3701C29.875 13.3701 29.5938 13.5576 29.4062 13.9326L24.3438 24.2451L12.9063 25.9326C12.5313 26.0264 12.25 26.2139 12.1562 26.5889C12.0625 26.9639 12.1563 27.3389 12.4375 27.5264L20.6875 35.5889L18.7188 46.9326C18.625 47.3076 18.8125 47.6826 19.0938 47.8701C19.375 48.0576 19.75 48.1514 20.125 47.9639L30.25 42.5264L40.4688 47.8701C40.5625 47.9639 40.75 47.9639 40.9375 47.9639C41.125 47.9639 41.3125 47.8701 41.5 47.7764C41.6875 47.5889 41.875 47.3076 41.7812 46.9326Z" fill="#8B1F16"/>
</g>
<defs>
<clipPath id="clip0_306_448">
<rect width="60" height="60" fill="white" transform="translate(0.25 0.713867)"/>
</clipPath>
</defs>
</svg>
