<svg width="42" height="42" viewBox="0 0 42 42" fill="none" xmlns="http://www.w3.org/2000/svg">
<path d="M27.4927 3.50006H14.3852C12.9507 3.49772 11.5299 3.77941 10.2048 4.32889C8.87968 4.87837 7.67647 5.68477 6.66455 6.70157C5.65263 7.71837 4.85204 8.92545 4.30894 10.2532C3.76584 11.5809 3.49098 13.0031 3.50023 14.4376V27.4926C3.49101 28.9304 3.76537 30.3559 4.30762 31.6875C4.84987 33.0192 5.64937 34.2309 6.66037 35.2533C7.67136 36.2756 8.87402 37.0886 10.1995 37.6458C11.5251 38.2029 12.9474 38.4932 14.3852 38.5001H27.4927C30.4107 38.4954 33.2078 37.3342 35.2711 35.2709C37.3344 33.2076 38.4956 30.4105 38.5002 27.4926V14.4376C38.4956 12.9966 38.2073 11.5707 37.6516 10.2412C37.096 8.91173 36.2839 7.7047 35.2617 6.68906C34.2396 5.67342 33.0274 4.86905 31.6944 4.32188C30.3614 3.77471 28.9337 3.49545 27.4927 3.50006ZM27.2652 21.0001C27.2651 22.256 26.8918 23.4835 26.1925 24.5268C25.4933 25.57 24.4997 26.3819 23.3381 26.8592C22.1764 27.3366 20.8991 27.4579 19.6684 27.2077C18.4376 26.9576 17.309 26.3472 16.4259 25.4542C15.5428 24.5613 14.945 23.4259 14.7085 22.1925C14.4721 20.959 14.6075 19.6831 15.0978 18.5269C15.588 17.3706 16.4109 16.3861 17.4618 15.6985C18.5128 15.0109 19.7444 14.6512 21.0002 14.6651C21.8276 14.6696 22.6459 14.8371 23.4085 15.158C24.1711 15.4788 24.863 15.9467 25.4448 16.535C26.0265 17.1233 26.4867 17.8204 26.7991 18.5865C27.1114 19.3526 27.2698 20.1727 27.2652 21.0001ZM31.2377 12.4951C30.8916 12.4951 30.5533 12.3924 30.2655 12.2001C29.9777 12.0078 29.7534 11.7345 29.6209 11.4148C29.4885 11.095 29.4538 10.7431 29.5213 10.4036C29.5889 10.0642 29.7555 9.75236 30.0003 9.50762C30.245 9.26288 30.5568 9.09621 30.8963 9.02868C31.2358 8.96116 31.5877 8.99581 31.9074 9.12827C32.2272 9.26072 32.5005 9.48502 32.6928 9.77281C32.8851 10.0606 32.9877 10.3989 32.9877 10.7451C32.9786 11.2031 32.7902 11.6393 32.4629 11.9599C32.1357 12.2806 31.6959 12.4601 31.2377 12.4601V12.4951Z" fill="#202226"/>
<path d="M27.4927 3.50006H14.3852C12.9507 3.49772 11.5299 3.77941 10.2048 4.32889C8.87968 4.87837 7.67647 5.68477 6.66455 6.70157C5.65263 7.71837 4.85204 8.92545 4.30894 10.2532C3.76584 11.5809 3.49098 13.0031 3.50023 14.4376V27.4926C3.49101 28.9304 3.76537 30.3559 4.30762 31.6875C4.84987 33.0192 5.64937 34.2309 6.66037 35.2533C7.67136 36.2756 8.87402 37.0886 10.1995 37.6458C11.5251 38.2029 12.9474 38.4932 14.3852 38.5001H27.4927C30.4107 38.4954 33.2078 37.3342 35.2711 35.2709C37.3344 33.2076 38.4956 30.4105 38.5002 27.4926V14.4376C38.4956 12.9966 38.2073 11.5707 37.6516 10.2412C37.096 8.91173 36.2839 7.7047 35.2617 6.68906C34.2396 5.67342 33.0274 4.86905 31.6944 4.32188C30.3614 3.77471 28.9337 3.49545 27.4927 3.50006ZM27.2652 21.0001C27.2651 22.256 26.8918 23.4835 26.1925 24.5268C25.4933 25.57 24.4997 26.3819 23.3381 26.8592C22.1764 27.3366 20.8991 27.4579 19.6684 27.2077C18.4376 26.9576 17.309 26.3472 16.4259 25.4542C15.5428 24.5613 14.945 23.4259 14.7085 22.1925C14.4721 20.959 14.6075 19.6831 15.0978 18.5269C15.588 17.3706 16.4109 16.3861 17.4618 15.6985C18.5128 15.0109 19.7444 14.6512 21.0002 14.6651C21.8276 14.6696 22.6459 14.8371 23.4085 15.158C24.1711 15.4788 24.863 15.9467 25.4448 16.535C26.0265 17.1233 26.4867 17.8204 26.7991 18.5865C27.1114 19.3526 27.2698 20.1727 27.2652 21.0001ZM31.2377 12.4951C30.8916 12.4951 30.5533 12.3924 30.2655 12.2001C29.9777 12.0078 29.7534 11.7345 29.6209 11.4148C29.4885 11.095 29.4538 10.7431 29.5213 10.4036C29.5889 10.0642 29.7555 9.75236 30.0003 9.50762C30.245 9.26288 30.5568 9.09621 30.8963 9.02868C31.2358 8.96116 31.5877 8.99581 31.9074 9.12827C32.2272 9.26072 32.5005 9.48502 32.6928 9.77281C32.8851 10.0606 32.9877 10.3989 32.9877 10.7451C32.9786 11.2031 32.7902 11.6393 32.4629 11.9599C32.1357 12.2806 31.6959 12.4601 31.2377 12.4601V12.4951Z" fill="white"/>
<path d="M27.4927 3.50006H14.3852C12.9507 3.49772 11.5299 3.77941 10.2048 4.32889C8.87968 4.87837 7.67647 5.68477 6.66455 6.70157C5.65263 7.71837 4.85204 8.92545 4.30894 10.2532C3.76584 11.5809 3.49098 13.0031 3.50023 14.4376V27.4926C3.49101 28.9304 3.76537 30.3559 4.30762 31.6875C4.84987 33.0192 5.64937 34.2309 6.66037 35.2533C7.67136 36.2756 8.87402 37.0886 10.1995 37.6458C11.5251 38.2029 12.9474 38.4932 14.3852 38.5001H27.4927C30.4107 38.4954 33.2078 37.3342 35.2711 35.2709C37.3344 33.2076 38.4956 30.4105 38.5002 27.4926V14.4376C38.4956 12.9966 38.2073 11.5707 37.6516 10.2412C37.096 8.91173 36.2839 7.7047 35.2617 6.68906C34.2396 5.67342 33.0274 4.86905 31.6944 4.32188C30.3614 3.77471 28.9337 3.49545 27.4927 3.50006ZM27.2652 21.0001C27.2651 22.256 26.8918 23.4835 26.1925 24.5268C25.4933 25.57 24.4997 26.3819 23.3381 26.8592C22.1764 27.3366 20.8991 27.4579 19.6684 27.2077C18.4376 26.9576 17.309 26.3472 16.4259 25.4542C15.5428 24.5613 14.945 23.4259 14.7085 22.1925C14.4721 20.959 14.6075 19.6831 15.0978 18.5269C15.588 17.3706 16.4109 16.3861 17.4618 15.6985C18.5128 15.0109 19.7444 14.6512 21.0002 14.6651C21.8276 14.6696 22.6459 14.8371 23.4085 15.158C24.1711 15.4788 24.863 15.9467 25.4448 16.535C26.0265 17.1233 26.4867 17.8204 26.7991 18.5865C27.1114 19.3526 27.2698 20.1727 27.2652 21.0001ZM31.2377 12.4951C30.8916 12.4951 30.5533 12.3924 30.2655 12.2001C29.9777 12.0078 29.7534 11.7345 29.6209 11.4148C29.4885 11.095 29.4538 10.7431 29.5213 10.4036C29.5889 10.0642 29.7555 9.75236 30.0003 9.50762C30.245 9.26288 30.5568 9.09621 30.8963 9.02868C31.2358 8.96116 31.5877 8.99581 31.9074 9.12827C32.2272 9.26072 32.5005 9.48502 32.6928 9.77281C32.8851 10.0606 32.9877 10.3989 32.9877 10.7451C32.9786 11.2031 32.7902 11.6393 32.4629 11.9599C32.1357 12.2806 31.6959 12.4601 31.2377 12.4601V12.4951Z" fill="white"/>
</svg>
