<svg width="20" height="15" viewBox="0 0 20 15" fill="none" xmlns="http://www.w3.org/2000/svg">
<path d="M19.1667 1.97956H0.833333C0.373437 1.97956 0 1.61457 0 1.16508C0 0.715579 0.373437 0.350586 0.833333 0.350586H19.1667C19.6266 0.350586 20 0.715579 20 1.16508C20 1.61457 19.6266 1.97956 19.1667 1.97956Z" fill="black"/>
<path d="M19.1667 8.31453H0.833333C0.373438 8.31453 0 7.94953 0 7.50004C0 7.05054 0.373438 6.68555 0.833333 6.68555H19.1667C19.6266 6.68555 20 7.05054 20 7.50004C20 7.94953 19.6266 8.31453 19.1667 8.31453Z" fill="black"/>
<path d="M19.1667 14.6495H0.833333C0.373437 14.6495 0 14.2845 0 13.835C0 13.3855 0.373437 13.0205 0.833333 13.0205H19.1667C19.6266 13.0205 20 13.3855 20 13.835C20 14.2845 19.6266 14.6495 19.1667 14.6495Z" fill="black"/>
</svg>
