<svg width="61" height="61" viewBox="0 0 61 61" fill="none" xmlns="http://www.w3.org/2000/svg">
<g clip-path="url(#clip0_306_655)">
<path d="M58.5247 33.5045L53.1658 25.4661C52.8774 11.7678 41.6446 0.713867 27.8786 0.713867C2.44235 1.2343 -5.22394 32.1117 11.7615 45.4941L8.29329 58.5032C7.99622 59.6178 8.83727 60.7139 9.99181 60.7139H30.7027C31.5093 60.7139 32.2124 60.1648 32.408 59.3824L33.9753 53.1137L40.744 55.3696C44.1255 56.4965 47.7938 54.6627 48.9213 51.2812L52.7398 39.8253C55.036 39.2465 57.6006 37.333 58.6345 35.2655C58.9164 34.7014 58.8747 34.0293 58.5247 33.5045ZM39.9918 25.0654C39.9053 27.3952 36.5618 27.3935 36.4762 25.0654V23.3397L30.2825 32.6302C29.9904 33.0684 29.5172 33.3526 28.9932 33.4044C28.4683 33.4565 27.9493 33.2704 27.577 32.8981L21.5618 26.883L17.1027 33.5716C16.7398 34.1161 15.7072 34.7537 14.6651 34.0592C13.8572 33.5206 13.639 32.4293 14.1776 31.6216L19.8261 23.1489C20.1181 22.7108 20.5913 22.4266 21.1154 22.3748C21.6398 22.3224 22.1592 22.5086 22.5316 22.8811L28.5467 28.8962L33.5509 21.3896L31.9577 22.0535C31.0614 22.4267 30.0323 22.0031 29.659 21.107C29.2856 20.2108 29.7094 19.1817 30.6054 18.8083L37.5577 15.9116C38.1004 15.6854 38.7197 15.7455 39.2089 16.0715C39.6979 16.3975 39.9917 16.9464 39.9917 17.5341V25.0654H39.9918Z" fill="#8B1F16"/>
</g>
<defs>
<clipPath id="clip0_306_655">
<rect width="60" height="60" fill="white" transform="translate(0.75 0.713867)"/>
</clipPath>
</defs>
</svg>
