<svg width="62" height="61" viewBox="0 0 62 61" fill="none" xmlns="http://www.w3.org/2000/svg">
<path fill-rule="evenodd" clip-rule="evenodd" d="M30.6552 21.6863H22.1279C20.9841 21.6863 19.8861 22.1313 19.0779 22.9288L16.6938 25.2713C15.3467 26.5988 13.5167 27.3438 11.6105 27.3438H6.80417C5.21563 27.3438 3.927 28.6088 3.927 30.1713V44.3163C3.927 45.0663 4.22946 45.7863 4.76829 46.3163C5.30967 46.8488 6.03913 47.1463 6.80417 47.1463H17.8274C19.3829 47.1463 20.8977 47.6413 22.1431 48.5613C23.752 49.7463 26.3369 51.6563 28.4744 53.2313C30.0731 54.4113 32.2869 54.3563 33.8246 53.0963L42.7459 45.7813C43.6787 45.0188 44.2404 43.9063 44.2938 42.7138C44.3497 41.5238 43.8922 40.3638 43.0356 39.5213L41.7368 38.2438C41.1751 37.6938 41.1751 36.7963 41.7368 36.2438C42.2985 35.6913 43.211 35.6913 43.7702 36.2438L45.069 37.5213C46.4974 38.9263 47.2599 40.8588 47.1684 42.8438C47.1201 43.8613 46.8532 44.8438 46.3932 45.7313H55.6957C56.4607 45.7313 57.1902 45.4338 57.7316 44.9038C58.2704 44.3713 58.5728 43.6538 58.5728 42.9013V28.7588C58.5728 28.0063 58.2704 27.2888 57.7316 26.7563C57.1902 26.2263 56.4607 25.9288 55.6957 25.9288H48.9857C47.4302 25.9288 45.9153 25.4313 44.6725 24.5138C43.8413 23.9013 42.8171 23.1463 41.9885 22.5338C41.2412 21.9838 40.3313 21.6863 39.3985 21.6863H36.5086C35.3649 21.6863 34.2669 22.1313 33.4586 22.9288L25.0762 31.1738C24.0494 32.1838 24.0494 33.8188 25.0762 34.8288V34.8313C26.103 35.8413 27.7678 35.8413 28.7947 34.8313C31.3033 32.3613 34.5465 29.1713 34.5465 29.1713C35.1082 28.6188 36.0206 28.6188 36.5798 29.1713C37.1415 29.7238 37.1415 30.6213 36.5798 31.1713C36.5798 31.1713 33.3392 34.3613 30.828 36.8313C28.6778 38.9463 25.1931 38.9463 23.0429 36.8313C20.8926 34.7188 20.8926 31.2863 23.0429 29.1713L30.6552 21.6863Z" fill="#8B1F16"/>
<path fill-rule="evenodd" clip-rule="evenodd" d="M29.3438 9.22388V11.7239C29.3438 12.7589 30.1978 13.5989 31.25 13.5989C32.3023 13.5989 33.1562 12.7589 33.1562 11.7239V9.22388C33.1562 8.18888 32.3023 7.34888 31.25 7.34888C30.1978 7.34888 29.3438 8.18888 29.3438 9.22388Z" fill="#8B1F16"/>
<path fill-rule="evenodd" clip-rule="evenodd" d="M19.1186 14.9414L20.9156 16.7089C21.6603 17.4389 22.8676 17.4389 23.6123 16.7089C24.357 15.9764 24.357 14.7889 23.6123 14.0564L21.8153 12.2889C21.0706 11.5564 19.8633 11.5564 19.1186 12.2889C18.3765 13.0214 18.3765 14.2089 19.1186 14.9414Z" fill="#8B1F16"/>
<path fill-rule="evenodd" clip-rule="evenodd" d="M40.6846 12.2889L38.8876 14.0564C38.1429 14.7889 38.1429 15.9764 38.8876 16.7089C39.6323 17.4389 40.8396 17.4389 41.5843 16.7089L43.3813 14.9414C44.1235 14.2089 44.1235 13.0214 43.3813 12.2889C42.6366 11.5564 41.4293 11.5564 40.6846 12.2889Z" fill="#8B1F16"/>
</svg>
