<svg width="24" height="25" viewBox="0 0 24 25" fill="none" xmlns="http://www.w3.org/2000/svg">
<path d="M20.3134 22.227C20.7149 22.6062 21.3478 22.5881 21.727 22.1866C22.1062 21.7851 22.0881 21.1522 21.6866 20.773L20.3134 22.227ZM16.8235 11.5C16.8235 14.7606 14.0075 17.5 10.4118 17.5V19.5C15.0028 19.5 18.8235 15.9714 18.8235 11.5H16.8235ZM10.4118 17.5C6.81602 17.5 4 14.7606 4 11.5H2C2 15.9714 5.8207 19.5 10.4118 19.5V17.5ZM4 11.5C4 8.23938 6.81602 5.5 10.4118 5.5V3.5C5.8207 3.5 2 7.02864 2 11.5H4ZM10.4118 5.5C14.0075 5.5 16.8235 8.23938 16.8235 11.5H18.8235C18.8235 7.02864 15.0028 3.5 10.4118 3.5V5.5ZM15.0193 17.227L20.3134 22.227L21.6866 20.773L16.3925 15.773L15.0193 17.227Z" fill="black"/>
</svg>
