<svg width="27" height="25" viewBox="0 0 27 25" fill="none" xmlns="http://www.w3.org/2000/svg">
<path d="M13.054 0.37965C13.2392 0.0144403 13.7608 0.0144392 13.946 0.379649L17.5538 7.49595C17.6276 7.64149 17.7677 7.74187 17.9293 7.76486L25.9756 8.90994C26.3897 8.96887 26.5527 9.47994 26.2492 9.76776L20.445 15.272C20.3232 15.3874 20.2675 15.5563 20.2966 15.7215L21.6686 23.5101C21.7403 23.9168 21.3159 24.2301 20.9483 24.0419L13.7279 20.3449C13.5848 20.2716 13.4152 20.2716 13.2721 20.3449L6.05167 24.0419C5.68409 24.2301 5.25973 23.9168 5.33138 23.5101L6.70338 15.7215C6.73249 15.5563 6.67677 15.3874 6.55502 15.272L0.75083 9.76776C0.447322 9.47994 0.610331 8.96887 1.02444 8.90994L9.07072 7.76486C9.23228 7.74187 9.37245 7.64149 9.44624 7.49595L13.054 0.37965Z" fill="#FFBB0D"/>
</svg>
