<svg width="42" height="42" viewBox="0 0 42 42" fill="none" xmlns="http://www.w3.org/2000/svg">
<path d="M35.1225 12.7399C35.0207 12.4012 34.8284 12.0967 34.5662 11.8592C34.3041 11.6217 33.9821 11.4603 33.635 11.3924C32.718 11.2112 31.8409 10.8675 31.045 10.3774H30.9225C30.0237 9.79451 29.2509 9.03731 28.6497 8.15061C28.0486 7.2639 27.6313 6.26568 27.4225 5.21494C27.4225 5.21494 27.4225 5.07494 27.4225 5.00494C27.314 4.56276 27.0563 4.17156 26.6928 3.89737C26.3294 3.62318 25.8824 3.4828 25.4275 3.49994H23.1525C22.6884 3.49994 22.2432 3.68431 21.915 4.0125C21.5869 4.34069 21.4025 4.78581 21.4025 5.24994V26.4774C21.3932 27.7616 20.8766 28.9901 19.9652 29.8949C19.0539 30.7997 17.8217 31.3075 16.5375 31.3074C15.784 31.3137 15.04 31.1397 14.3675 30.7999C13.5633 30.3951 12.8872 29.7751 12.4145 29.0089C11.9418 28.2426 11.691 27.3603 11.69 26.4599C11.7145 25.2118 12.2094 24.0189 13.0758 23.1201C13.9422 22.2213 15.1161 21.6828 16.3625 21.6124C16.8113 21.59 17.2342 21.3957 17.5437 21.0699C17.8532 20.7442 18.0255 20.3118 18.025 19.8624V17.6224C18.0415 17.5064 18.0415 17.3885 18.025 17.2724C17.9432 16.8712 17.7232 16.5114 17.4035 16.2556C17.0837 15.9998 16.6844 15.8642 16.275 15.8724C15.972 15.8524 15.668 15.8524 15.365 15.8724C13.1905 16.1052 11.1409 17.0034 9.49595 18.4444C7.85099 19.8854 6.69088 21.799 6.17401 23.924C5.65714 26.0489 5.8087 28.2815 6.608 30.3171C7.4073 32.3527 8.81537 34.0919 10.64 35.2974C12.6311 36.6377 15.0213 37.2553 17.4125 37.0474C20.1084 36.756 22.5989 35.4704 24.398 33.4416C26.1971 31.4128 27.1756 28.7863 27.1425 26.0749V14.7349C28.9561 16.0436 31.0672 16.8796 33.285 17.1674C33.5163 17.1841 33.7486 17.1545 33.9684 17.0806C34.1882 17.0066 34.3911 16.8897 34.5654 16.7367C34.7396 16.5836 34.8817 16.3974 34.9833 16.189C35.085 15.9805 35.1442 15.754 35.1575 15.5224V13.2474C35.1656 13.0775 35.1538 12.9072 35.1225 12.7399Z" fill="#202226"/>
<path d="M35.1225 12.7399C35.0207 12.4012 34.8284 12.0967 34.5662 11.8592C34.3041 11.6217 33.9821 11.4603 33.635 11.3924C32.718 11.2112 31.8409 10.8675 31.045 10.3774H30.9225C30.0237 9.79451 29.2509 9.03731 28.6497 8.15061C28.0486 7.2639 27.6313 6.26568 27.4225 5.21494C27.4225 5.21494 27.4225 5.07494 27.4225 5.00494C27.314 4.56276 27.0563 4.17156 26.6928 3.89737C26.3294 3.62318 25.8824 3.4828 25.4275 3.49994H23.1525C22.6884 3.49994 22.2432 3.68431 21.915 4.0125C21.5869 4.34069 21.4025 4.78581 21.4025 5.24994V26.4774C21.3932 27.7616 20.8766 28.9901 19.9652 29.8949C19.0539 30.7997 17.8217 31.3075 16.5375 31.3074C15.784 31.3137 15.04 31.1397 14.3675 30.7999C13.5633 30.3951 12.8872 29.7751 12.4145 29.0089C11.9418 28.2426 11.691 27.3603 11.69 26.4599C11.7145 25.2118 12.2094 24.0189 13.0758 23.1201C13.9422 22.2213 15.1161 21.6828 16.3625 21.6124C16.8113 21.59 17.2342 21.3957 17.5437 21.0699C17.8532 20.7442 18.0255 20.3118 18.025 19.8624V17.6224C18.0415 17.5064 18.0415 17.3885 18.025 17.2724C17.9432 16.8712 17.7232 16.5114 17.4035 16.2556C17.0837 15.9998 16.6844 15.8642 16.275 15.8724C15.972 15.8524 15.668 15.8524 15.365 15.8724C13.1905 16.1052 11.1409 17.0034 9.49595 18.4444C7.85099 19.8854 6.69088 21.799 6.17401 23.924C5.65714 26.0489 5.8087 28.2815 6.608 30.3171C7.4073 32.3527 8.81537 34.0919 10.64 35.2974C12.6311 36.6377 15.0213 37.2553 17.4125 37.0474C20.1084 36.756 22.5989 35.4704 24.398 33.4416C26.1971 31.4128 27.1756 28.7863 27.1425 26.0749V14.7349C28.9561 16.0436 31.0672 16.8796 33.285 17.1674C33.5163 17.1841 33.7486 17.1545 33.9684 17.0806C34.1882 17.0066 34.3911 16.8897 34.5654 16.7367C34.7396 16.5836 34.8817 16.3974 34.9833 16.189C35.085 15.9805 35.1442 15.754 35.1575 15.5224V13.2474C35.1656 13.0775 35.1538 12.9072 35.1225 12.7399Z" fill="white"/>
<path d="M35.1225 12.7399C35.0207 12.4012 34.8284 12.0967 34.5662 11.8592C34.3041 11.6217 33.9821 11.4603 33.635 11.3924C32.718 11.2112 31.8409 10.8675 31.045 10.3774H30.9225C30.0237 9.79451 29.2509 9.03731 28.6497 8.15061C28.0486 7.2639 27.6313 6.26568 27.4225 5.21494C27.4225 5.21494 27.4225 5.07494 27.4225 5.00494C27.314 4.56276 27.0563 4.17156 26.6928 3.89737C26.3294 3.62318 25.8824 3.4828 25.4275 3.49994H23.1525C22.6884 3.49994 22.2432 3.68431 21.915 4.0125C21.5869 4.34069 21.4025 4.78581 21.4025 5.24994V26.4774C21.3932 27.7616 20.8766 28.9901 19.9652 29.8949C19.0539 30.7997 17.8217 31.3075 16.5375 31.3074C15.784 31.3137 15.04 31.1397 14.3675 30.7999C13.5633 30.3951 12.8872 29.7751 12.4145 29.0089C11.9418 28.2426 11.691 27.3603 11.69 26.4599C11.7145 25.2118 12.2094 24.0189 13.0758 23.1201C13.9422 22.2213 15.1161 21.6828 16.3625 21.6124C16.8113 21.59 17.2342 21.3957 17.5437 21.0699C17.8532 20.7442 18.0255 20.3118 18.025 19.8624V17.6224C18.0415 17.5064 18.0415 17.3885 18.025 17.2724C17.9432 16.8712 17.7232 16.5114 17.4035 16.2556C17.0837 15.9998 16.6844 15.8642 16.275 15.8724C15.972 15.8524 15.668 15.8524 15.365 15.8724C13.1905 16.1052 11.1409 17.0034 9.49595 18.4444C7.85099 19.8854 6.69088 21.799 6.17401 23.924C5.65714 26.0489 5.8087 28.2815 6.608 30.3171C7.4073 32.3527 8.81537 34.0919 10.64 35.2974C12.6311 36.6377 15.0213 37.2553 17.4125 37.0474C20.1084 36.756 22.5989 35.4704 24.398 33.4416C26.1971 31.4128 27.1756 28.7863 27.1425 26.0749V14.7349C28.9561 16.0436 31.0672 16.8796 33.285 17.1674C33.5163 17.1841 33.7486 17.1545 33.9684 17.0806C34.1882 17.0066 34.3911 16.8897 34.5654 16.7367C34.7396 16.5836 34.8817 16.3974 34.9833 16.189C35.085 15.9805 35.1442 15.754 35.1575 15.5224V13.2474C35.1656 13.0775 35.1538 12.9072 35.1225 12.7399Z" fill="white"/>
</svg>
